<svg width="393" height="339" viewBox="0 0 393 339" fill="none" xmlns="http://www.w3.org/2000/svg">
<g opacity="0.5">
<path fill-rule="evenodd" clip-rule="evenodd" d="M88.8824 2.58851C85.8926 6.50754 83.5384 13.0417 83.6136 17.2086C83.6905 21.4597 85.2799 26.9788 86.5494 27.4017C87.9392 27.8647 92.9895 23.1236 94.5028 19.9342C96.9241 14.8315 95.2039 1.10875 92.0096 0.0461666C91.4885 -0.127249 90.0807 1.01631 88.8824 2.58851ZM48.0348 1.34433C47.2487 2.61632 49.0663 8.79139 51.0442 11.5693C52.8168 14.0585 59.2823 17.4295 60.6565 16.5804C63.0205 15.1186 60.6868 7.33781 56.7849 3.67154C54.1935 1.23717 48.9616 -0.154243 48.0348 1.34433ZM118.494 2.19832C116.165 3.03186 113.828 7.30836 113.822 10.7489C113.816 14.6164 116.46 19.5432 119.51 21.3444C121.623 22.5927 121.857 22.5878 122.955 21.2708C128.866 14.1861 125.478 -0.299029 118.494 2.19832ZM194.964 4.69976C193.12 6.03474 191.225 7.85151 190.751 8.73577C188.903 12.1877 190.261 22.7211 192.554 22.7211C194.394 22.7211 198.386 18.9264 199.784 15.8491C202.006 10.9558 201.712 2.27112 199.324 2.27112C198.77 2.27112 196.807 3.36397 194.964 4.69976ZM235.954 4.92962C233.933 7.16357 232.422 11.4376 232.44 14.8675C232.456 17.9325 235.698 23.9481 237.335 23.9481C238.984 23.9481 241.59 16.5877 241.681 11.6781C241.73 8.99017 241.247 6.81674 240.269 5.33862C238.468 2.61386 238.083 2.57705 235.954 4.92962ZM138.086 7.38362C132.065 13.4376 129.094 20.4438 130.244 25.8794C131.689 32.7138 135.264 32.0185 139.134 24.151C142.433 17.4409 144.002 4.72512 141.531 4.72512C141.09 4.72512 139.539 5.92103 138.086 7.38362ZM150.696 8.11164C147.93 11.0793 145.467 16.9542 145.386 20.7751C145.323 23.7297 145.747 24.7628 147.92 26.9354C150.24 29.2561 150.685 29.4164 151.935 28.3833C155.801 25.1825 157.438 15.8442 155.211 9.68219C153.936 6.15253 152.867 5.78034 150.696 8.11164ZM69.832 8.55254C66.3612 9.92187 65.2275 19.6062 68.0046 24.16C69.5849 26.753 74.012 30.0741 75.895 30.0798C77.2742 30.0847 79.4606 24.0062 79.4606 20.1698C79.4606 13.3027 74.1216 6.86092 69.832 8.55254ZM255.685 14.5002C249.698 16.6311 248.12 17.818 246.31 21.5481C244.494 25.2929 244.274 28.6262 245.595 32.4152C246.86 36.0447 249.549 35.8303 253.979 31.7461C258.073 27.9718 260.773 23.081 261.767 17.6348C262.753 12.2352 262.464 12.0863 255.685 14.5002ZM173.694 15.5227C173.074 16.1427 172.713 19.2495 172.713 23.9514C172.713 30.2851 173.019 32.0021 174.768 35.4443C176.856 39.5539 179.041 41.6594 182.281 42.6852C183.749 43.1498 184.33 42.7711 185.439 40.6263C186.186 39.1809 186.991 35.8721 187.226 33.2733C187.575 29.4328 187.315 27.8884 185.837 25.0213C183.67 20.8176 180.491 17.2798 177.457 15.6953C174.789 14.3014 174.91 14.3072 173.694 15.5227ZM219.714 20.8348C215.553 30.6467 218.74 42.3531 225.572 42.3531C228.055 42.3531 231.087 46.9748 232.425 52.7973C233.901 59.2251 233.206 60.7499 227.48 63.6407C221.832 66.4922 217.302 70.3401 214.021 75.073C211.734 78.3728 211.734 78.3728 210.411 74.4628C208.564 69.0076 205.316 63.7102 200.678 58.5871C198.501 56.1822 196.487 53.5801 196.202 52.8055C195.134 49.895 199.978 40.7171 202.583 40.7171C204.623 40.7171 209.309 35.8982 210.747 32.3219C212.147 28.8397 212.747 19.9473 211.656 18.8561C210.027 17.2274 198.701 25.8647 197.164 29.9064C196.201 32.4406 196.237 36.8201 197.244 39.4688C197.962 41.3576 197.721 41.8917 195.121 44.1748C193.507 45.5915 191.859 47.612 191.459 48.6647C190.732 50.578 190.732 50.578 187.243 48.8259C185.325 47.8623 182.467 46.1167 180.893 44.9461C178.03 42.8177 178.03 42.8177 180.416 46.0619C186.128 53.823 191.61 60.1175 193.576 61.1695C196.762 62.8742 202.021 71.4411 202.584 75.8436C203.506 83.0461 205.395 90.606 207.113 93.9753C208.068 95.8469 211.167 99.8461 214 102.862C217.074 106.135 219.379 109.389 219.719 110.934C220.621 115.041 218.205 120.789 212.978 126.968C210.403 130.012 207.455 133.522 206.429 134.77C202.973 138.967 201.339 145.383 201.378 154.603C201.419 164.078 202.13 166.663 206.897 174.652C211.064 181.636 217.181 188.636 225.19 195.587C233.498 202.797 235.219 206.273 234.706 214.805C234.111 224.719 229.183 234.694 219.118 246.366C216.363 249.56 216.363 249.56 210.284 244.629C198.417 234.999 189.406 224.705 186.814 217.814C186.306 216.464 185.09 212.415 184.113 208.816C181.021 197.433 172.999 183.368 164.542 174.5C155.976 165.518 154.288 159.883 154.36 140.513C154.421 124.128 155.808 118.829 162.137 110.787C171.314 99.1271 172.615 97.2637 175.935 91.024C179.412 84.4874 179.413 84.4833 176.768 87.343C168.672 96.0972 161.027 103.742 160.699 103.413C160.492 103.206 160.91 101.901 161.627 100.513C163.349 97.1827 164.587 93.887 164.115 93.887C163.907 93.887 163.181 95.2162 162.502 96.8416C161.823 98.4662 159.333 101.897 156.969 104.465C154.605 107.032 151.018 111.961 148.995 115.416C146.974 118.872 145.126 121.699 144.888 121.699C144.651 121.699 141.582 117.296 138.069 111.913C129.122 98.2085 127.533 91.4191 131.317 83.0731C132.393 80.6976 134.613 75.5017 136.25 71.5262C142.397 56.5928 146.072 50.8398 154.921 42.3015C156.158 41.1081 157.171 39.8647 157.171 39.5392C157.171 38.5649 151.257 42.3981 147.983 45.4942C146.304 47.0827 144.695 48.1461 144.407 47.8582C142.794 46.2451 152.088 35.3723 159.216 30.5322C162.488 28.3105 162.488 28.3105 159.625 28.8757C153.62 30.0602 143.719 37.3101 142.303 41.558C142.05 42.3171 140.872 41.5179 138.71 39.1179C131.44 31.0508 122.523 23.5579 121.458 24.6229C121.166 24.9158 124.11 29.3313 128.002 34.4357C138.379 48.0463 138.378 49.5048 127.961 70.983C124.477 78.1683 120.878 84.4465 119.655 85.4731C115.911 88.6158 113.381 87.9532 97.2628 79.6072C84.5666 73.0329 82.0946 71.446 80.8005 69.0419C78.7253 65.1875 73.1727 59.7036 69.3846 57.7658C60.4168 53.1801 53.616 55.3723 41.7787 66.6632C33.7779 74.2951 30.1983 76.709 26.8846 76.709C25.8163 76.709 21.9439 75.8117 18.2784 74.7139C10.8142 72.48 8.6694 72.7074 3.22726 76.3082C0.0894089 78.3851 0.049324 78.3892 -3.81081 77.0182C-9.09018 75.1434 -12.5568 75.9229 -16.8293 79.9475C-20.462 83.3692 -23.6072 88.6534 -23.6072 91.3357C-23.6072 93.4657 -20.3876 94.1119 -14.6092 93.1418C-6.19118 91.7275 -3.5695 89.959 -0.573174 83.6718C0.585114 81.2432 2.36345 79.0608 3.92828 78.1495C6.45426 76.6779 6.62931 76.682 11.4686 78.3123C21.8629 81.8133 33.0466 79.9704 42.2294 73.244C53.8205 64.7515 62.3931 62.1004 66.4855 65.7413C68.2582 67.3176 72.0758 74.6346 72.0905 76.4833C72.0954 77.0346 70.9028 78.0923 69.4402 78.835C64.2827 81.4534 59.6086 86.035 52.8021 95.1426C45.3976 105.05 38.3096 111.278 29.1537 115.918C22.9541 119.061 24.7234 119.092 33.5088 115.993C44.7481 112.029 49.7861 108.682 60.7825 97.869C73.9408 84.9307 76.6819 82.7467 81.1858 81.6121C85.5711 80.5078 90.2149 81.4542 95.329 84.4947C97.0836 85.5369 105.582 93.213 114.213 101.552C131.84 118.582 134.111 121.8 136.214 132.742C136.906 136.341 138.072 145.725 138.805 153.595C139.538 161.465 140.617 169.294 141.202 170.993C142.652 175.202 147.056 182.361 151.17 187.194C154.798 191.459 161.458 202.613 165.017 210.387C167.177 215.105 167.177 215.105 165.809 224.617C165.056 229.849 164.317 234.253 164.166 234.404C164.015 234.555 161.367 234.764 158.281 234.867C151.274 235.102 147.637 236.98 134.901 246.941C121.504 257.417 121.409 257.487 120.464 257.487C119.988 257.487 116.55 255.506 112.822 253.086C104.75 247.844 96.6141 243.721 89.0926 241.058C84.7637 239.526 83.392 238.629 82.6541 236.847C81.5981 234.297 79.8647 233.982 77.1932 235.853C75.6782 236.914 74.4185 236.99 69.5293 236.312C59.4778 234.92 46.3701 237.228 36.6703 242.099C27.6208 246.644 19.3189 252.961 8.50581 263.529C1.76304 270.117 1.76304 270.117 -9.89917 270.68C-17.1957 271.032 -22.9045 271.731 -25.1467 272.547C-35.186 276.198 -44.9701 284.486 -49.5001 293.178C-53.802 301.431 -54.9775 307.221 -55.0421 320.473C-55.0969 331.584 -54.9603 332.665 -52.894 337.575C-50.4155 343.461 -50.2772 342.964 -56.2421 349.601C-58.22 351.801 -61.8503 356.087 -64.31 359.123C-66.7689 362.16 -69.034 364.645 -69.3423 364.645C-70.463 364.645 -78.562 373.386 -83.2172 379.621C-85.8406 383.134 -89.3571 388.744 -91.0324 392.088C-94.0778 398.167 -94.0778 398.167 -92.4017 400.521C-90.8361 402.719 -86.6954 406.009 -86.2536 405.406C-86.1449 405.257 -84.7559 402.743 -83.1673 399.819C-75.5428 385.786 -72.9432 381.793 -68.2413 376.887C-66.0548 374.605 -64.0033 373.034 -63.6826 373.395C-62.3804 374.862 -58.7812 397.788 -58.7812 404.622C-58.7812 406.75 -58.3394 408.931 -57.7996 409.471C-57.2286 410.042 -54.4916 410.453 -51.2556 410.453C-46.566 410.453 -45.6932 410.234 -45.6932 409.062C-45.6932 407.981 -45.4748 407.89 -44.7116 408.653C-43.1173 410.247 -42.6862 409.841 -41.6384 405.749C-40.1496 399.937 -38.2142 395.729 -37.0297 395.729C-36.3901 395.729 -35.7815 397.251 -35.478 399.614C-35.2032 401.752 -34.6281 405.043 -34.2003 406.929C-33.7733 408.816 -33.4232 411.23 -33.4232 412.296C-33.4232 415.041 -27.9565 425.798 -26.0407 426.823C-23.734 428.058 -20.7434 426.268 -15.2284 420.353C-9.68568 414.408 -7.81165 411.304 -2.33514 399.001C1.3843 390.643 7.93484 379.465 9.15366 379.395C9.80315 379.357 17.6469 391.399 20.0805 396.171C22.1492 400.228 22.1492 400.228 20.9541 407.999C20.2964 412.273 19.7623 417.794 19.7664 420.269C19.7746 424.768 19.7746 424.768 21.4956 422.08C22.73 420.152 24.2146 419.124 26.7439 418.448C30.8134 417.36 31.1709 416.583 31.1873 408.8C31.2053 400.241 34.8184 388.529 41.9652 373.857C46.074 365.423 47.3027 363.783 46.0683 368.38C44.3685 374.708 46.4577 391.36 50.0757 400.318C50.991 402.584 50.9043 403.143 49.2879 405.414C48.2892 406.817 46.3464 410.457 44.9706 413.503C43.5955 416.549 41.4303 421.276 40.1583 424.008C36.6564 431.534 36.4576 432.937 38.6769 434.491C41.5489 436.503 46.7407 436.046 46.7407 433.782C46.7407 432.789 48.0618 429.532 52.0569 420.678C55.2683 413.559 64.434 400.637 66.2729 400.637C66.6328 400.637 66.9575 402.753 66.9944 405.34C67.0868 411.717 70.079 428.453 72.0578 433.658C73.1048 436.411 74.5191 436.38 77.2349 433.545C78.8472 431.863 79.2733 430.772 78.8913 429.312C78.3768 427.345 78.3768 427.345 81.2455 429.532C82.8235 430.736 84.4823 431.721 84.9323 431.721C86.6779 431.721 88.4341 428.555 90.8325 421.087C93.9171 411.482 100.275 400.292 107.583 391.607C109.837 388.928 109.944 388.892 111.096 390.445C113.162 393.233 111.731 402.593 108.455 407.715C105.689 412.039 101.847 419.89 100.71 423.541C100.36 424.665 99.4795 426.966 98.754 428.653C97.4345 431.721 97.4345 431.721 101.026 431.721C103.002 431.721 104.969 431.261 105.399 430.698C105.827 430.136 107.391 426.547 108.873 422.723C112.551 413.232 115.422 410.305 118.263 413.146C119.266 414.149 121.997 423.566 121.997 426.022C121.997 427.509 126.911 431.716 128.651 431.719C130.144 431.721 132.631 428.392 132.631 426.392C132.631 423.988 129.089 418.128 123.019 410.488C121.13 408.111 120.411 402.273 122.007 402.273C122.886 402.273 127.771 406.515 132.368 411.271C133.89 412.845 136.321 416.597 137.768 419.609C139.806 423.845 140.807 425.095 142.194 425.131C143.18 425.156 144.213 424.808 144.492 424.359C145.418 422.86 146.326 423.514 146.833 426.042C147.307 428.416 147.511 428.531 150.82 428.291C154.308 428.04 154.308 428.04 154.896 414.952C155.892 392.8 157.585 386.663 165.613 376.097C169.032 371.598 169.032 371.598 169.627 378.749C170.898 394.012 178.229 417.494 184.299 425.748C187.425 429.999 187.425 429.999 192.134 427.922C194.724 426.778 196.978 425.712 197.143 425.551C197.307 425.391 195.889 422.243 193.99 418.556C189.737 410.294 188.062 405.495 185.355 393.803C184.193 388.789 182.677 382.304 181.985 379.392C181.292 376.481 180.919 372.657 181.156 370.893C181.392 369.13 184.466 361.946 187.988 354.928C193.657 343.631 194.666 342.101 196.806 341.572C198.134 341.244 200.083 341.191 201.136 341.455C205.08 342.446 216.29 362.56 216.29 368.647C216.29 370.913 214.871 374.511 211.216 381.511C208.426 386.857 205.431 393.07 204.561 395.32C202.93 399.536 202.569 406.36 203.648 412.498C204.142 415.303 204.551 415.807 206.512 416.033C208.259 416.234 209.472 417.347 211.64 420.736C215.545 426.839 217.331 426.77 223.548 420.278C228.838 414.752 228.379 415.487 236.067 400.229C239.195 394.023 241.9 389.384 242.079 389.92C243.186 393.24 236.311 410.053 230.004 419.451C228.344 421.925 226.719 424.404 226.393 424.96C225.529 426.433 230.421 430.903 232.897 430.903C235.205 430.903 239.788 427.853 239.788 426.318C239.788 425.766 240.107 425.19 240.498 425.04C241.199 424.771 246.202 413.917 248.542 407.59C252.48 396.94 253.158 391.845 253.222 372.416C253.257 362.068 253.544 353.204 253.86 352.719C254.177 352.234 255.407 348.185 256.594 343.721C258.798 335.438 260.744 331.103 262.256 331.112C263.696 331.121 265.715 335.549 267.254 342.074C268.71 348.256 268.708 348.359 267.017 351.84C264.251 357.535 257.811 379.955 256.527 388.367C254.6 400.984 255.138 408.817 257.932 408.817C260.44 408.817 264.194 406.52 265.378 404.26C266.313 402.475 266.247 401.337 264.918 396.295C262.661 387.733 262.622 379.318 264.824 376.363C268.216 371.812 272.229 372.791 276.369 379.18C278.04 381.758 281.206 386.177 283.405 389C288.893 396.042 289.955 399.899 288.798 408.59C288.009 414.511 288.065 415.67 289.217 417.428C290.543 419.452 293.256 420.136 294.16 418.673C294.427 418.241 295.883 418.738 297.439 419.794C299.321 421.071 300.957 421.556 302.431 421.274C304.605 420.858 304.62 420.809 304.158 415.449C303.354 406.12 306.95 392.848 311.247 389.281C315.134 386.055 324.855 399.869 324.865 408.636C324.874 416.317 327.386 421.626 330.461 420.462C333.591 419.279 333.881 418.242 332.972 411.487C332.276 406.321 332.349 403.725 333.335 398.529C334.712 391.266 335.937 387.549 336.95 387.549C339.282 387.549 346.128 397.909 346.128 401.44C346.128 402.367 344.656 406.055 342.856 409.635C338.997 417.31 338.79 419.189 341.682 420.289C342.837 420.727 344.091 421.087 344.472 421.087C344.851 421.087 346.634 418.417 348.432 415.156C350.23 411.894 352.783 408.199 354.105 406.944C356.302 404.86 356.606 404.779 357.628 406.011C358.343 406.872 358.862 410.203 359.067 415.245C359.245 419.582 359.498 423.249 359.632 423.392C359.766 423.536 361.405 423.195 363.275 422.635C368.993 420.922 369.665 417.199 366.313 405.8C364.344 399.103 364.344 399.103 366.368 395.575C367.481 393.635 369.682 389.103 371.258 385.504C374.765 377.494 375.325 376.834 376.858 378.911C380.805 384.259 383.484 398.879 382.308 408.652C381.912 411.936 381.8 414.744 382.059 414.891C382.317 415.038 385.014 415.418 388.051 415.734C393.572 416.309 393.572 416.309 393.572 408.616C393.572 402.575 394.008 399.642 395.602 394.957C396.717 391.676 398.086 386.097 398.642 382.559C399.199 379.021 399.897 376.395 400.193 376.725C401.421 378.09 404.254 388.381 404.967 394.064C405.905 401.54 403.926 412.732 400.461 419.54C399.46 421.507 399.568 421.87 401.854 424.208C404.671 427.09 407.261 428.174 408.461 426.975C408.911 426.525 410.013 423.635 410.91 420.554C412.273 415.87 412.609 411.666 412.955 394.911C413.273 379.534 413.631 374.574 414.494 373.6C417.762 369.911 427.95 344.393 429.608 335.744C430.583 330.652 433.238 326.841 435.576 327.176C436.878 327.362 438.361 329.503 441.418 335.606C445.077 342.91 445.515 344.355 445.515 349.103C445.515 353.824 445.046 355.391 441.328 363.094C439.025 367.864 435.485 374.496 433.46 377.832C423.064 394.956 419.35 404.198 421.356 407.946C423.454 411.866 429.851 407.882 430.817 402.054C431.693 396.772 435.662 386.462 439.502 379.493C441.399 376.051 443.977 371.146 445.23 368.594C447.792 363.378 448.628 362.565 449.875 364.068C451.155 365.611 452.455 374.769 452.462 382.298C452.467 387.675 452.099 389.636 450.489 392.816C446.86 399.985 446.971 401.113 451.545 403.458C453.404 404.411 455.196 404.704 457.044 404.357C459.968 403.809 459.814 404.116 462.363 393.791C463.731 388.246 462.818 372.12 460.26 356.654C459.123 349.785 458.194 343.988 458.194 343.771C458.194 342.286 467.649 346.296 475.138 350.956C482.857 355.76 488.078 363.855 489.673 373.491C489.995 375.432 489.811 381.45 489.264 386.865C488.382 395.604 488.416 396.853 489.563 397.999C490.653 399.09 490.916 399.109 491.25 398.124C492.078 395.685 494.186 380.237 494.186 376.613C494.186 371.727 495.578 371.661 499.433 376.367C503.369 381.17 505.816 386.974 506.388 392.866C506.865 397.774 506.865 397.774 509.933 398.027C512.854 398.269 513 398.164 513 395.82C513 392.471 509.263 380.866 506.256 374.87C495.764 353.958 480.778 340.96 458.727 333.644C454.615 332.28 454.432 332.081 451.136 325.386C447.758 318.525 447.758 318.525 447.325 304.57C446.588 280.887 443.495 274.28 429.973 267.511C424.776 264.909 418.281 263.213 413.518 263.213C411.684 263.213 409.636 262.446 407.869 261.098C404.003 258.15 395.315 255.311 386.619 254.156C379.554 253.217 359.092 253.519 350.218 254.694C346.537 255.182 346.537 255.182 344.178 247.642C341.68 239.657 338.131 234.329 332.038 229.422C327.066 225.416 315.726 224.603 314.594 228.171C313.839 230.545 285.241 259.928 281.819 261.843C281.009 262.297 277.947 261.902 273.457 260.765C264.47 258.49 255.295 257.826 249.629 259.041C245.108 260.011 236.416 264.001 233.858 266.28C232.557 267.44 232.278 267.422 230.79 266.076C228.531 264.032 228.708 263.289 232.36 259.471C237.544 254.052 241.859 247.322 245.559 238.885C250.737 227.078 255.559 219.719 263.694 211.21C275.916 198.425 288.491 191.229 298.609 191.229C303.443 191.229 311.198 193.444 310.473 194.618C309.915 195.519 315.778 201.924 320.959 206.075C324.01 208.519 324.01 208.519 322.985 206.214C322.422 204.945 321.316 202.711 320.527 201.249C318.81 198.067 319.237 198.003 325.042 200.57C331.817 203.566 338.279 204.532 349.106 204.168C357.294 203.892 359.382 203.542 362.488 201.923C366.398 199.884 372.079 195.471 369.619 196.383C360.346 199.822 356.461 200.435 346.652 200.008C341.19 199.77 335.29 199.055 333.539 198.419C330.358 197.262 330.358 197.262 334.466 194.246C339.719 190.39 344.492 185.113 344.492 183.161C344.492 182.326 345.79 180.266 347.376 178.585C348.961 176.903 350.808 174.466 351.479 173.167C354.291 167.729 353.636 159.327 350.399 159.327C348.383 159.327 344.123 163.915 342.522 167.811C341.155 171.139 340.883 177.412 341.985 180.186C342.467 181.397 342.008 182.62 340.223 184.889C337.341 188.554 336.312 188.754 336.312 185.652C336.312 184.383 335.751 181.457 335.066 179.149C333.745 174.7 330.592 171.597 327.393 171.597C325.949 171.597 325.686 172.081 325.723 174.664C325.817 181.145 329.579 187.024 334.92 189.035C336.286 189.55 333.47 191.675 329.215 193.34C325.799 194.678 325.799 194.678 317.149 190.516C312.392 188.227 308.5 186.053 308.5 185.685C308.5 185.318 309.966 183.585 311.758 181.837C313.549 180.088 314.888 178.53 314.733 178.376C314.141 177.783 309.767 179.931 306.833 182.255C304.715 183.933 302.853 184.685 300.816 184.685C299.194 184.685 297.866 184.447 297.866 184.156C297.866 183.865 299.176 181.654 300.777 179.242C302.378 176.83 304.548 172.912 305.599 170.536C307.997 165.112 308.746 164.531 313.96 164.055C319.44 163.555 326.167 160.228 330.455 155.898C335.959 150.339 334.864 148.726 325.566 148.704C321.711 148.695 320.306 149.129 316.995 151.351C312.912 154.093 309.355 159.196 309.331 162.348C309.32 163.899 306.657 166.689 305.188 166.689C304.916 166.689 305.071 164.848 305.532 162.597C306.156 159.549 306.12 158.255 305.39 157.526C304.629 156.764 304.408 157.45 304.398 160.595C304.391 162.822 304.006 165.196 303.544 165.871C302.829 166.912 302.491 166.792 301.307 165.073C300.54 163.958 298.954 161.934 297.785 160.574C296.411 158.975 295.467 156.662 295.118 154.037C293.96 145.335 288.477 140.977 278.643 140.942C272.917 140.922 272.917 140.922 273.053 144.844C273.216 149.562 276.13 155.742 279.266 158.019C281.919 159.947 290.966 160.831 293.602 159.42C295.073 158.633 295.511 158.885 297.08 161.423C298.276 163.359 298.895 165.719 298.938 168.499C298.995 172.285 298.74 172.891 296.184 175.042C290.994 179.41 282.763 184.444 271.137 190.363C264.791 193.592 258.128 197.496 256.328 199.036C253.056 201.837 253.056 201.837 250.859 197.347C249.308 194.179 246.817 191.235 242.385 187.34C228.217 174.886 221.474 166.44 218.144 156.974C216.367 151.924 216.57 148.828 218.997 143.956C224.352 133.211 241.892 122.505 260.222 118.79C271.562 116.492 281.066 118.59 288.368 125C293.825 129.791 301.348 139.607 300.749 141.156C298.673 146.528 298.908 156.055 301.117 156.055C302.691 156.055 306.154 150.172 308.03 144.312C308.396 143.164 309.011 142.918 310.543 143.302C313.432 144.027 323.102 141.835 328.031 139.337C330.336 138.169 332.222 137.074 332.222 136.904C332.222 136.734 329.553 137.648 326.292 138.935C319.035 141.798 313.709 142.037 310.656 139.635C309.34 138.6 308.5 137.132 308.5 135.866C308.5 134.089 308.221 133.862 306.552 134.281C304.971 134.677 303.928 134.037 301.03 130.893C297.457 127.016 297.457 127.016 300.934 126.765C305.138 126.461 305.466 125.351 301.568 124.62C297.406 123.839 293.887 122.052 289.277 118.38C287.028 116.589 283.531 114.63 281.506 114.028C277.825 112.933 277.825 112.933 283.96 110.06C295.055 104.863 304.999 101.882 312.718 101.438C319.584 101.043 319.979 101.121 325.812 104.003C329.121 105.638 332.929 106.958 334.275 106.937C336.514 106.901 336.397 106.771 332.887 105.4C330.779 104.575 327.678 103.05 325.996 102.011C323.229 100.3 323.082 100.04 324.443 99.2539C325.27 98.7762 327.083 97.3782 328.471 96.1471C330.995 93.9083 330.995 93.9083 325.835 95.9688C322.996 97.1025 318.027 98.3664 314.792 98.7786C307.665 99.6874 300.626 101.356 294.594 103.569C292.12 104.477 287.887 106.02 285.187 106.998C279.833 108.938 260.272 113.007 259.587 112.323C259.354 112.089 262.328 108.938 266.195 105.319C274.294 97.7422 277.764 93.2809 281.915 85.1107C284.876 79.2824 284.876 79.2824 292.499 76.7671C300.392 74.1634 309.318 70.4693 309.318 69.8067C309.318 69.5982 304.006 71.2481 297.513 73.473C291.021 75.698 285.161 77.3086 284.494 77.0526C283.4 76.6329 280.906 73.3781 278.276 68.938C277.414 67.4828 277.353 67.5785 277.72 69.8067C277.946 71.1851 278.247 72.8415 278.387 73.4877C278.533 74.1552 278.072 74.6231 277.323 74.5691C276.193 74.4873 276.114 74.9561 276.777 77.8411C277.809 82.3352 277.061 87.3087 274.643 92.0416C270.964 99.2392 264.998 103.579 245.514 113.223C232.017 119.904 232.017 119.904 231.608 114.871C231.103 108.646 228.193 103.384 221.988 97.4682C216.509 92.2461 215.761 89.0322 218.525 82.6043C221.384 75.9597 227.549 70.9184 241.424 63.8787C248.253 60.4145 247.721 59.7805 239.959 62.1356C235.697 63.4288 235.091 62.745 234.453 55.9261C233.721 48.1257 234.147 46.5273 237.937 42.8291C241.015 39.8263 241.015 39.8263 237.163 41.5228C234.723 42.596 232.548 43.0271 231.232 42.6974C228.736 42.0709 228.746 42.2017 230.791 36.8226C232.849 31.4074 232.84 29.8164 230.72 25.4393C228.999 21.8835 226.174 19.3174 222.845 18.2835C221.311 17.8074 220.833 18.1967 219.714 20.8348ZM46.7971 22.142C45.737 25.3526 46.6818 31.486 48.7137 34.5862C50.5542 37.3952 56.573 40.2778 59.2144 39.6144C61.6823 38.9952 62.4373 36.1453 61.4917 31.0172C60.3964 25.081 54.78 19.4491 49.9554 19.4491C48.1141 19.4491 47.5178 19.9571 46.7971 22.142ZM101.784 23.5105C100.34 24.3906 98.1454 26.6418 96.9069 28.5125C94.6558 31.9146 94.6558 31.9146 96.6697 33.5465C99.5671 35.8941 109.129 35.2807 113.099 32.4921C117.617 29.3191 118.064 28.3375 116.007 26.0921C112.178 21.9105 106.19 20.8233 101.784 23.5105ZM308.967 31.2226C304.196 33.9031 302.53 36.6205 302.111 42.403C301.637 48.9519 302.553 49.8402 306.764 46.9224C308.541 45.6897 310.624 43.9882 311.39 43.1416C313.068 41.288 313.831 35.5604 312.875 31.9988C312.181 29.4164 312.181 29.4164 308.967 31.2226ZM24.1304 31.5269C21.1594 33.441 17.2445 47.7887 18.4183 52.4644C19.5709 57.0591 26.3742 62.803 30.6613 62.803C33.0777 62.803 33.3149 62.246 34.4609 53.877C35.1235 49.0369 35.1178 46.3735 34.4404 43.8026C33.2683 39.3576 30.065 33.7993 27.732 32.1657C25.6903 30.7358 25.431 30.6892 24.1304 31.5269ZM273.612 39.2839C269.646 43.5163 268.418 45.7862 268.422 48.875C268.425 52.1126 270.785 56.5347 273.199 57.8272C274.499 58.5225 275.023 58.3335 276.026 56.803C278.264 53.3871 278.858 49.5302 278.064 43.5555C277.648 40.4201 277.037 37.5776 276.706 37.2389C276.375 36.9003 274.983 37.8205 273.612 39.2839ZM110.398 38.5862C105.772 39.832 100.538 43.6218 100.894 45.468C101.56 48.929 112.565 52.9224 118.127 51.7216C121.735 50.9429 126.889 48.2525 127.419 46.8709C128.097 45.1048 124.491 40.8831 120.765 39.0786C116.91 37.2128 115.71 37.1555 110.398 38.5862ZM249.849 40.8038C246.103 41.8868 245.872 42.9142 248.951 44.7915C251.694 46.4643 256.179 46.8872 260.986 45.9253C264.089 45.3052 263.898 44.205 260.259 41.7396C257.417 39.814 254.255 39.5293 249.849 40.8038ZM85.7502 41.7126C83.5416 42.2983 82.0782 43.4058 80.7294 45.5138C76.3073 52.4251 77.8582 56.259 85.0762 56.259C91.4787 56.259 95.8206 51.5155 95.8206 44.5199C95.8206 42.3138 95.4329 41.6218 93.9801 41.2324C91.5703 40.587 89.5523 40.7048 85.7502 41.7126ZM156.353 46.3923C154.115 47.0533 154.087 47.7641 156.111 52.4259C158.426 57.756 168.364 62.1266 171.36 59.131C172.104 58.3867 172.713 57.3249 172.713 56.7703C172.713 54.4521 168.47 47.4541 166.529 46.5699C164.251 45.5318 159.542 45.45 156.353 46.3923ZM-4.40058 49.2194C-6.52738 54.3081 -5.34374 63.2734 -2.08483 66.7679C0.22274 69.2431 5.22398 71.801 7.75406 71.801C12.3169 71.801 13.0285 59.8116 8.79537 54.2615C6.42563 51.1547 1.84075 47.8091 -1.33308 46.8709C-2.90201 46.4079 -3.37808 46.7719 -4.40058 49.2194ZM291.956 49.1016C288.62 53.5048 288.05 55.1204 288.077 60.0906C288.098 63.6161 288.527 65.356 289.737 66.8088C291.37 68.7695 291.37 68.7695 293.469 66.8088C298.141 62.4439 299.09 56.7948 296.26 50.192C295.376 48.1298 294.499 46.4431 294.311 46.4431C294.124 46.4431 293.064 47.639 291.956 49.1016ZM313.971 50.0725C307.391 52.7785 303.962 55.3012 302.394 58.5895C301.198 61.0967 301.239 64.9315 302.483 67.0534C302.967 67.8812 309.225 65.5245 312.786 63.1744C315.632 61.2955 319.511 55.1318 321.128 49.9196C321.884 47.4803 320.187 47.5171 313.971 50.0725ZM118.671 55.6578C113.239 59.3184 109.148 67.7568 111.269 70.9274C112.326 72.5086 117.332 71.0256 121.399 67.9262C124.527 65.5425 127.723 59.4672 127.723 55.9032C127.723 54.0145 127.408 53.8051 124.572 53.8051C122.653 53.8051 120.346 54.529 118.671 55.6578ZM258.757 60.1151C257.717 60.3139 256.671 60.9846 256.433 61.6055C255.714 63.4795 257.765 68.3949 259.999 70.1519C262.363 72.0113 268.298 72.4121 269.891 70.8194C271.074 69.6358 271.182 64.9094 270.072 62.8349C268.702 60.2762 263.925 59.1278 258.757 60.1151ZM176.905 63.2169C172.874 66.8579 171.541 70.5953 172.154 76.534C172.797 82.7573 173.708 83.3765 177.219 79.9737C181.604 75.7233 183.478 71.1867 183.185 65.5319C182.875 59.5769 181.497 59.0689 176.905 63.2169ZM335.471 64.5977C331.053 69.2047 329.287 78.2886 331.511 84.9716C333.181 89.9876 334.044 90.2469 337.499 86.7712C343.745 80.4857 345.256 72.381 341.41 65.7945C339.513 62.5462 337.774 62.1961 335.471 64.5977ZM157.93 69.8771C154.222 77.536 155.325 85.4232 160.825 90.5905C162.83 92.4735 162.83 92.4735 163.813 90.3173C164.353 89.1312 165.075 88.161 165.417 88.161C165.759 88.161 166.285 85.8592 166.587 83.0452C167.008 79.1082 166.803 77.0812 165.698 74.2518C164.079 70.1078 161.496 66.075 160.46 66.075C160.081 66.075 158.942 67.7863 157.93 69.8771ZM318.725 74.8873C310.847 82.3352 309.318 84.6273 309.318 88.9896C309.318 91.1598 309.542 93.5173 309.815 94.2289C310.558 96.1643 313.477 95.7962 317.361 93.2784C321.849 90.368 324.864 84.5365 324.849 78.7982C324.837 74.3712 324.176 70.9708 323.333 71.0018C323.048 71.0125 320.975 72.7605 318.725 74.8873ZM291.322 82.372C291.322 86.8236 294.527 90.615 298.289 90.615C303.194 90.615 304.93 86.997 302.223 82.4154C300.727 79.8812 299.059 79.1908 294.39 79.1745C291.365 79.163 291.322 79.2072 291.322 82.372ZM352.542 81.5966C347.235 83.1998 337.948 91.5271 337.948 94.6837C337.948 98.3819 352.085 97.2236 358.984 92.9602C364.564 89.5107 366.748 83.0812 362.844 81.5966C360.389 80.6632 355.633 80.6632 352.542 81.5966ZM22.1885 87.1884C16.1778 92.0555 24.7161 105.088 33.4433 104.366C36.5157 104.112 36.5157 104.112 36.3505 99.3324C36.2212 95.6007 35.7157 93.9377 34.0462 91.7487C30.0069 86.453 25.3222 84.651 22.1885 87.1884ZM3.3565 95.2056C2.81989 96.831 2.54177 100.094 2.73809 102.457C3.33768 109.69 8.24486 114.123 16.766 115.128C21.5562 115.693 21.5561 115.693 21.0154 111.539C19.961 103.449 15.1324 95.7692 9.66245 93.4845C5.34423 91.68 4.43871 91.9271 3.3565 95.2056ZM177.825 94.696C174.684 96.6109 174.535 97.6662 177.008 100.477C179.957 103.827 182.686 105.339 185.778 105.336C188.902 105.332 193.742 102.823 194.516 100.805C195.167 99.1107 192.636 96.4318 188.664 94.6077C184.419 92.6584 181.122 92.6854 177.825 94.696ZM349.779 100.054C347.962 100.722 345.096 102.407 343.409 103.798C339.767 106.8 340.119 107.584 346.312 110.248C354.231 113.655 370.668 111.454 370.668 106.987C370.668 101.743 357.271 97.2972 349.779 100.054ZM56.5886 110.402C54.7489 112.376 54.3734 116.882 55.7477 120.496C56.5771 122.676 61.7526 128.243 62.951 128.243C63.9138 128.243 65.5547 123.163 65.5547 120.183C65.5547 116.783 63.7747 112.574 61.4009 110.363C59.0573 108.18 58.6548 108.183 56.5886 110.402ZM318.725 114.088C315.878 114.811 312.055 118.226 310.556 121.383C309.167 124.311 309.169 124.474 310.597 125.519C312.812 127.139 317.275 126.838 320.852 124.827C324.145 122.977 327.817 118.395 328.275 115.564C328.509 114.124 328.051 113.912 324.451 113.8C322.202 113.73 319.625 113.859 318.725 114.088ZM-7.91471 116.366C-12.9037 118.591 -17.8608 123.593 -17.8755 126.415C-17.8845 128.093 -12.8096 130.69 -9.51308 130.694C-4.76704 130.699 -0.286873 128.501 2.16222 124.968C4.69311 121.315 4.59904 119.602 1.75076 117.501C-1.12859 115.376 -4.74578 114.951 -7.91471 116.366ZM353.899 118.595C350.689 119.718 348.14 122.09 346.882 125.127C345.59 128.245 346.855 129.285 351.291 128.757C356.512 128.134 362.488 122.882 362.488 118.914C362.488 117.377 357.874 117.207 353.899 118.595ZM336.538 119.78C330.149 122.042 326.514 127.274 326.501 134.228C326.497 136.242 326.729 136.461 328.337 135.964C334.867 133.945 341.043 129.081 343.228 124.237C345.775 118.587 343.738 117.23 336.538 119.78ZM22.3889 121.331C14.613 123.425 12.2874 125.162 9.15448 131.224C6.58842 136.187 6.04935 140.498 7.83177 141.801C10.6171 143.838 21.0817 139.059 24.4314 134.218C28.02 129.034 30.1304 119.99 27.7222 120.117C27.1603 120.146 24.7602 120.693 22.3889 121.331ZM40.4347 122.721C39.5096 123.734 38.1116 125.827 37.3296 127.373C35.4163 131.154 36.0405 139.079 38.6695 144.38C40.3055 147.679 41.0114 148.323 43.2225 148.538C45.5775 148.765 46.0209 148.438 47.6462 145.266C49.5309 141.589 50.6884 131.866 49.7076 127.957C49.0066 125.163 45.2732 120.881 43.5382 120.881C42.757 120.881 41.3607 121.709 40.4347 122.721ZM342.447 134.421C335.378 137.098 334.936 139.158 340.703 142.537C345.921 145.595 349.945 145.926 355.193 143.73C359.586 141.891 362.488 139.962 362.488 138.88C362.488 138.572 360.64 137.313 358.38 136.083C353.338 133.339 347.042 132.682 342.447 134.421ZM283.142 165.537C279.851 166.96 274.962 171.411 274.962 172.984C274.962 174.503 282.423 174.372 286.236 172.786C289.777 171.314 295.412 167.56 295.412 166.675C295.412 166.054 289.021 164.209 287.074 164.267C286.486 164.285 284.717 164.856 283.142 165.537ZM359.625 175.455C354.898 177.361 352.442 179.25 349.875 182.955C347.264 186.723 347.614 187.96 351.289 187.949C357.267 187.931 368.214 179.904 368.214 175.54C368.214 173.626 364.257 173.587 359.625 175.455ZM374.975 177.118C370.555 180.131 367.917 183.439 364.951 189.694C362.478 194.91 362.478 194.91 364.877 195.162C367.308 195.417 372.409 193.228 376.595 190.133C381.616 186.421 384.96 176.638 381.644 175.365C379.436 174.518 378.386 174.794 374.975 177.118ZM389.9 183.205C386.407 185.046 376.394 194.577 376.394 196.061C376.394 197.238 382.734 197.215 386.293 196.026C389.986 194.791 393.195 191.707 395.292 187.376C398.147 181.476 396.135 179.919 389.9 183.205ZM365.556 202.462C363.869 203.154 362.488 204.006 362.488 204.355C362.488 205.424 367.639 209.403 370.668 210.674C373.707 211.949 383.346 211.598 384.784 210.161C385.71 209.234 381.063 203.84 377.949 202.23C375.049 200.73 369.526 200.834 365.556 202.462ZM133.011 205.914C132.096 206.284 130.887 207.142 130.325 207.82C128.231 210.343 132.776 212.921 148.914 218.364C154.046 220.095 158.454 221.302 158.71 221.046C159.574 220.183 154.511 211.644 152.132 209.95C146.813 206.162 137.333 204.161 133.011 205.914ZM346.133 213.425C346.14 222.455 347.199 225.202 352.778 230.661C355.442 233.268 358.148 235.401 358.791 235.401C360.337 235.401 361.193 230.623 360.577 225.426C359.766 218.575 356.304 213.866 348.378 208.83C346.128 207.401 346.128 207.401 346.133 213.425ZM132.222 223.809C128.225 225.696 125.723 228.366 126.37 230.054C127.062 231.855 130.295 231.608 135.912 229.326C140.132 227.611 144.361 226.489 151.036 225.312C154.33 224.732 147.947 222.864 141.629 222.56C136.862 222.331 134.764 222.609 132.222 223.809ZM186.592 240.521C188.601 243.778 193.111 249.852 196.612 254.016C200.114 258.181 202.978 261.977 202.978 262.451C202.978 264.45 193.26 273.014 189.155 274.632C186.827 275.55 184.659 276.301 184.339 276.3C182.412 276.297 177.634 263.742 175.778 253.806C175.61 252.906 176.704 248.673 178.208 244.399C179.712 240.125 181.104 236.168 181.302 235.605C181.97 233.694 182.933 234.589 186.592 240.521ZM162.27 239.955C162.983 240.668 161.369 245.89 158.68 251.574C156.454 256.278 149.179 266.05 141.926 274.077C139.004 277.312 139.004 277.312 137.249 275.556C135.638 273.945 135.494 272.947 135.494 263.385C135.494 252.967 135.494 252.967 140.208 248.768C146.494 243.168 153.598 239.816 159.692 239.574C160.855 239.528 162.015 239.699 162.27 239.955ZM81.9147 248.836C88.8218 250.718 103.169 258.573 110.04 264.234C112.399 266.177 112.399 266.177 109.35 270.421C106.713 274.092 105.929 274.665 103.543 274.665C99.5 274.665 93.3985 276.914 89.8541 279.712C87.0762 281.905 86.484 282.068 84.2108 281.276C78.8521 279.408 73.706 281.102 67.9563 286.624C65.041 289.424 65.041 289.424 61.5138 288.179C55.1006 285.916 49.0843 286.985 38.1509 292.329C34.5574 294.087 31.3836 295.632 31.0997 295.763C30.348 296.11 26.4331 285.983 25.0482 280.109C24.3954 277.34 23.8555 273.108 23.849 270.706C23.8375 266.544 24.0257 266.155 27.8155 262.502C32.2057 258.27 47.3272 250.241 54.9207 248.109C60.3915 246.573 75.0582 246.968 81.9147 248.836ZM324.091 249.874C326.262 251.157 330.618 257.825 329.744 258.526C329.532 258.696 324.574 260.186 318.725 261.839C312.877 263.492 306.343 265.379 304.206 266.034C302.068 266.688 300.32 267.038 300.32 266.81C300.32 265.943 306.764 256.974 309.012 254.71C311.352 252.355 318.546 248.512 320.644 248.497C321.25 248.492 322.801 249.113 324.091 249.874ZM132.179 262.81C132.155 265.253 131.866 267.522 131.536 267.852C131.206 268.182 129.067 266.583 126.783 264.298C122.629 260.144 122.629 260.144 126.191 258.02C129.368 256.126 129.887 256.029 130.988 257.131C131.798 257.942 132.207 259.893 132.179 262.81ZM54.4413 265.025C51.418 268.482 50.0127 272.832 50.0127 278.734C50.0127 281.842 50.3505 284.593 50.7636 284.848C51.9554 285.585 57.2234 276.451 58.2475 271.874C59.917 264.413 57.998 260.96 54.4413 265.025ZM370.078 265.161C372.131 267.064 374.662 273.398 373.738 274.321C373.483 274.576 372.228 274.251 370.949 273.597C367.465 271.818 360.64 270.575 354.357 270.575C349.001 270.575 348.736 270.482 348.222 268.433C347.926 267.255 347.876 266.1 348.111 265.866C348.558 265.419 362.168 263.449 365.845 263.299C367.052 263.25 368.887 264.058 370.078 265.161ZM387.556 266.565C403.531 271.453 411.2 279.547 411.122 291.434C411.09 296.155 410.602 298.2 408.342 303.09C406.834 306.352 405.277 309.021 404.883 309.021C404.488 309.021 403.848 308.186 403.46 307.165C403.072 306.144 400.964 303.668 398.777 301.662C396.589 299.656 394.386 297.086 393.881 295.952C393.377 294.816 390.716 291.358 387.969 288.266C384.387 284.233 382.853 281.804 382.545 279.677C381.94 275.5 380.647 268.868 380.012 266.689C379.33 264.349 380.264 264.333 387.556 266.565ZM259.539 268.122C265.707 270.065 268.885 272.27 268.175 274.118C266.838 277.602 254.757 281.152 244.097 281.192C239.816 281.209 239.816 281.209 237.705 277.043C235.684 273.054 235.657 272.827 237.078 271.709C243.778 266.437 250.686 265.334 259.539 268.122ZM37.7893 270.487C37.2004 271.588 37.3174 273.237 38.1967 276.196C39.175 279.491 40.2171 280.956 43.2037 283.237C45.2789 284.821 47.2912 286.117 47.6765 286.117C48.7849 286.117 48.4904 278.975 47.2609 276.032C46.0569 273.151 41.5996 268.939 39.7533 268.939C39.1292 268.939 38.245 269.636 37.7893 270.487ZM123.431 275.781C130.733 283.385 132.514 285.956 130.825 286.452C125.809 287.928 116.475 291.366 115.637 292.046C114.245 293.178 114.191 293.094 111.675 285.957C109.488 279.753 109.488 279.753 112.019 274.346C113.41 271.372 115.07 268.939 115.706 268.939C116.343 268.939 119.819 272.018 123.431 275.781ZM172.917 274.955C175.054 277.792 176.803 280.325 176.803 280.585C176.803 280.844 173.951 282.954 170.466 285.276C165.257 288.744 163.692 289.411 161.673 289.021C156.508 288.024 156.53 287.721 162.455 278.427C165.495 273.659 168.218 269.766 168.507 269.777C168.795 269.789 170.78 272.118 172.917 274.955ZM330.586 270.321C330.586 271.071 317.488 288.148 313.92 292.047C312.378 293.735 310.803 295.111 310.421 295.107C310.04 295.102 308.744 292.984 307.543 290.401C306.342 287.818 304.041 283.979 302.431 281.87C300.82 279.761 299.502 277.682 299.502 277.252C299.502 276.821 301.803 276.055 304.615 275.55C307.427 275.044 313.96 273.574 319.134 272.284C329.578 269.679 330.586 269.506 330.586 270.321ZM65.1105 272.099C62.0512 273.965 58.6418 277.939 56.5011 282.136C54.8872 285.299 54.8871 285.299 56.8283 285.299C60.9837 285.299 67.8639 278.378 69.2676 272.785C69.9408 270.1 68.7195 269.898 65.1105 272.099ZM425.064 272.296C432.214 274.096 437.613 281.103 440.532 292.37C441.96 297.881 442.272 306.199 441.078 306.937C440.664 307.194 439.491 306.204 438.473 304.736C437.456 303.269 435.226 300.368 433.518 298.291C431.81 296.213 429.259 291.495 427.85 287.805C426.441 284.116 424.028 279.223 422.487 276.935C420.947 274.645 419.495 272.462 419.26 272.082C418.677 271.14 420.781 271.217 425.064 272.296ZM218.71 279.883C223.42 286.14 225.038 289.697 228.283 300.932C230.647 309.116 231.25 312.293 230.439 312.293C230.245 312.293 227.649 311.165 224.671 309.786C217.782 306.597 208.654 304.646 203.653 305.294C200.245 305.735 199.769 305.6 199.275 304.044C198.418 301.343 199.666 293.617 201.704 289.009C203.585 284.756 212.217 274.634 213.905 274.702C214.419 274.723 216.582 277.054 218.71 279.883ZM369.85 281.444C375.167 284.072 375.167 284.072 375.414 288.361C375.727 293.785 374.507 300.446 372.235 305.728C370.498 309.765 369.265 310.84 368.691 308.816C368.532 308.254 367.983 306.25 367.471 304.364C366.937 302.396 364.076 297.689 360.759 293.321C355.776 286.758 351.854 280.563 351.854 279.253C351.854 278.463 355.681 278.084 360.034 278.444C362.84 278.675 366.534 279.804 369.85 281.444ZM-8.85377 281.729C-8.16093 282.422 -8.74907 283.875 -11.1728 287.455C-15.8812 294.41 -18.4546 299.885 -22.7295 312.046C-26.525 322.842 -26.525 322.842 -34.5365 329.119C-38.943 332.572 -42.8367 335.076 -43.1876 334.683C-44.238 333.51 -45.6932 324.637 -45.6932 319.402C-45.6932 310.4 -39.5516 294.794 -32.9937 287.132C-28.4882 281.869 -24.4571 280.262 -16.4906 280.554C-12.8006 280.689 -9.3642 281.218 -8.85377 281.729ZM11.7074 281.962C13.6592 283.497 22.2261 299.767 22.1746 301.84C22.1607 302.415 20.8666 304.162 19.2993 305.722C15.6387 309.366 10.5958 317.87 7.47676 325.66C6.12706 329.031 5.02276 332.131 5.02276 332.55C5.02276 332.969 1.25015 335.771 -3.36172 338.775C-7.9736 341.779 -12.7524 345.031 -13.9826 346.002C-15.2121 346.972 -16.5004 347.485 -16.8456 347.139C-17.19 346.795 -17.4714 341.482 -17.4706 335.333C-17.4689 324.327 -17.4141 323.995 -13.9867 313.929C-8.46522 297.713 -4.52493 290.419 1.64934 284.983C4.51806 282.457 7.50539 280.391 8.28739 280.391C9.07022 280.391 10.6089 281.098 11.7074 281.962ZM103.172 280.595C103.166 280.707 102.43 283.133 101.536 285.985C100.537 289.172 99.9106 293.468 99.9106 297.133C99.9106 301.476 99.572 303.375 98.664 304.129C97.9785 304.698 97.2734 305.019 97.0983 304.843C96.9233 304.667 96.0071 301.415 95.0623 297.619C94.1184 293.821 92.583 289.422 91.6505 287.842C90.0128 285.067 90.0063 284.931 91.4566 283.821C94.0284 281.853 97.7552 280.456 100.524 280.423C101.986 280.405 103.178 280.483 103.172 280.595ZM296.251 285.098C302.428 290.384 305.428 299.744 301.955 302.887C299.583 305.033 296.321 311.189 295.266 315.509C294.543 318.471 289.686 326.977 289.686 325.283C289.686 322.929 287.608 314.667 286.575 312.914C285.448 311.004 285.399 310.125 286.243 306.972C287.509 302.238 287.513 292.366 286.252 286.9C285.372 283.09 285.421 282.542 286.727 281.587C288.695 280.149 291.812 281.297 296.251 285.098ZM108.795 288.235C109.758 290.749 110.545 293.258 110.545 293.81C110.545 294.362 109.072 295.641 107.273 296.653C104.001 298.491 104.001 298.491 104.001 293.653C104.001 288.81 105.247 283.663 106.421 283.663C106.765 283.663 107.833 285.72 108.795 288.235ZM183.117 291.904C184.893 296.247 185.636 303.295 184.317 303.295C183.952 303.295 182.571 302.161 181.25 300.775C179.929 299.389 177.099 297.118 174.962 295.729C172.825 294.34 171.077 292.985 171.077 292.72C171.077 291.938 179.589 286.971 180.484 287.23C180.933 287.36 182.119 289.464 183.117 291.904ZM280.576 292.388C282.362 301.284 282.247 301.597 275.097 307.228C271.573 310.004 267.135 314.118 265.236 316.37C260.889 321.525 255.195 330.717 253.34 335.575C252.559 337.623 251.637 339.123 251.293 338.91C250.948 338.697 250.451 334.185 250.189 328.884C249.756 320.107 247.212 302.447 245.882 298.981C245.424 297.79 245.846 297.569 248.568 297.569C253.553 297.569 263.202 294.805 270.872 291.179C274.697 289.372 278.234 287.862 278.735 287.823C279.236 287.785 280.063 289.839 280.576 292.388ZM347.399 290.684C352.679 293.779 353.759 295.751 353.341 301.529C352.981 306.518 349.573 314.532 345.824 319.211C343.886 321.629 343.886 321.629 337.125 315.348C333.406 311.893 329.918 308.412 329.375 307.612C327.947 305.512 326.496 299.065 326.496 294.82C326.496 291.255 326.585 291.128 329.973 289.918C331.884 289.236 334.001 288.477 334.676 288.233C337.242 287.304 343.781 288.565 347.399 290.684ZM84.4136 291.867C86.4513 292.958 88.2893 296.574 90.1977 303.246C92.4194 311.013 92.2844 311.827 88.5347 313.3C81.6545 316.002 68.6279 326.842 61.2545 336.001C59.6299 338.018 58.0978 339.465 57.8491 339.216C57.297 338.663 62.2483 318.823 64.7719 311.475C70.0676 296.055 77.805 288.33 84.4136 291.867ZM387.018 303.748C387.031 308.898 384.152 314.977 379.493 319.636C375.849 323.279 374.713 323.429 373.66 320.406C373.113 318.837 373.584 317.413 375.939 313.52C379.214 308.105 382.12 299.667 382.12 295.574C382.12 294.122 382.396 292.657 382.734 292.32C383.89 291.162 387.007 299.475 387.018 303.748ZM61.1833 294.56C61.4033 294.781 60.1322 298.033 58.3579 301.786C53.7166 311.605 52.0356 317.522 50.4184 329.728C50.0004 332.883 49.6806 333.485 48.8078 332.761C48.209 332.264 44.6802 325.792 40.9656 318.379C34.2131 304.901 34.213 304.901 36.0495 302.947C38.1762 300.683 46.3824 296.153 51.1964 294.585C54.2221 293.601 60.2082 293.586 61.1833 294.56ZM145.616 298.08C147.022 298.361 148.173 298.842 148.173 299.149C148.173 299.456 145.872 301.405 143.06 303.48C140.249 305.555 135.371 309.856 132.222 313.039C129.072 316.222 125.943 318.837 125.269 318.851C122.536 318.906 114.385 322.957 109.054 326.909C105.94 329.217 103.156 331.107 102.869 331.107C102.051 331.107 103.159 324.721 105.07 318.434C106.393 314.077 107.624 311.898 110.24 309.282C118.2 301.323 135.089 295.974 145.616 298.08ZM317.223 300.636C319.669 303.728 322.406 309.913 322.406 312.349C322.406 313.759 320.388 319.211 317.921 324.463C312.645 335.695 311.772 339.615 311.772 352.077C311.772 357.6 311.447 361.373 310.971 361.373C310.531 361.373 309.378 359.808 308.41 357.896C307.443 355.984 305.96 353.438 305.115 352.239C303.674 350.194 303.627 349.118 304.347 335.061C304.833 325.592 305.614 318.406 306.467 315.565C308.338 309.332 314.05 299.205 315.695 299.205C315.912 299.205 316.6 299.849 317.223 300.636ZM169.621 310.551C172.928 314.127 172.928 314.127 170.162 316.241C168.641 317.404 164.609 321.041 161.202 324.322C157.796 327.604 154.758 330.289 154.453 330.289C153.499 330.289 153.866 323.531 155.065 319.026C155.697 316.656 157.341 312.306 158.72 309.359C161.227 304.001 161.227 304.001 163.77 305.488C165.169 306.307 167.802 308.585 169.621 310.551ZM423.686 306.55C429.352 310.654 429.719 311.678 428.407 319.696C426.871 329.082 424.41 338.389 420.834 348.348C418.357 355.243 417.109 357.466 413.601 361.235C409.36 365.791 409.36 365.791 405.575 358.469C403.493 354.443 400.308 349.359 398.498 347.173C396.689 344.987 395.208 342.928 395.208 342.596C395.208 342.265 395.994 341.293 396.955 340.436C400.807 336.999 407.04 327.745 411.503 318.837C418.544 304.784 418.915 304.113 419.647 304.113C420.017 304.113 421.835 305.21 423.686 306.55ZM149.157 313.669C144.631 325.483 144.166 331.067 147.179 337.384C149.16 341.539 147.536 344.222 140.612 348.232C137.433 350.072 134.666 351.41 134.462 351.207C133.509 350.254 133.337 336.503 134.216 331.444C135.432 324.433 137.511 319.628 141.359 314.932C144.339 311.296 150.573 306.24 151.247 306.914C151.445 307.112 150.504 310.151 149.157 313.669ZM397.109 310.043C401.269 315.617 401.315 316.058 398.174 320.3C396.605 322.42 393.1 326.339 390.385 329.009C385.529 333.784 385.42 333.839 383.784 332.358C382.869 331.53 382.12 330.55 382.12 330.182C382.12 329.812 383.699 327.155 385.629 324.277C387.559 321.4 390.195 316.422 391.486 313.215C392.776 310.008 394.124 307.385 394.479 307.385C394.834 307.385 396.018 308.581 397.109 310.043ZM27.7402 318.237C28.0732 322.247 27.7337 323.334 23.584 331.558C16.8878 344.83 17.0686 344.687 14.9344 338.396C13.1561 333.152 13.1561 333.152 16.3979 326.591C20.496 318.297 25.3247 311.817 26.5173 313.01C26.9909 313.484 27.5415 315.836 27.7402 318.237ZM282.265 316.792C282.916 318.141 283.471 321.653 283.5 324.596C283.551 329.947 283.551 329.947 278.272 335.844C275.369 339.087 272.746 341.741 272.444 341.741C272.142 341.741 271.665 340.591 271.384 339.184C271.102 337.778 269.887 334.432 268.682 331.747C266.5 326.887 266.498 326.855 268.002 324.061C268.833 322.519 271.301 319.584 273.487 317.539C278.106 313.218 280.446 313.019 282.265 316.792ZM360.02 316.587C360.011 317.6 359.477 321.404 358.833 325.043C358.19 328.681 357.845 332.362 358.065 333.223C358.331 334.259 356.079 338.375 351.39 345.422C347.498 351.27 344.036 356.161 343.697 356.291C343.359 356.42 342.634 354.212 342.087 351.383C341.541 348.554 340.373 345 339.493 343.486C337.892 340.733 337.892 340.733 345.138 333.242C349.323 328.916 353.685 323.427 355.462 320.249C358.652 314.546 360.045 313.426 360.02 316.587ZM218.862 320.522C221.598 321.341 225.923 322.863 228.473 323.901C233.109 325.79 233.109 325.79 233.693 333.49C234.351 342.173 233.744 352.503 231.963 362.912C230.258 372.876 230.112 373.025 227.989 366.949C225.917 361.018 222.368 354.816 215.801 345.648C208.15 334.966 204.174 327.361 202.486 320.174C201.936 317.83 201.936 317.83 207.91 318.43C211.196 318.76 216.125 319.701 218.862 320.522ZM186.291 327.994C184.707 335.117 179.458 345.741 175.257 350.33C171.147 354.817 162.867 365.793 159.668 370.992C158.214 373.354 156.721 375.097 156.348 374.867C155.976 374.637 155.017 371.671 154.216 368.277C152.439 360.74 153.182 356.041 157.63 346.673C161.64 338.23 166.016 332.699 172.157 328.318C178.479 323.806 185.903 320.248 186.904 321.249C187.327 321.672 187.072 324.488 186.291 327.994ZM336.452 323.631C339.071 325.972 339.071 325.972 334.612 330.379C329.475 335.458 325.521 342.82 323.459 351.148C321.742 358.082 321.742 358.082 320.294 356.102C316.801 351.325 321.117 329.086 326.694 323.131C329.173 320.484 333.159 320.689 336.452 323.631ZM86.4071 326.812C83.374 334.164 74.0079 361.827 71.2512 371.578C67.9007 383.428 67.6389 383.997 63.2455 388.97C60.7473 391.798 58.3939 393.803 58.016 393.425C56.7882 392.197 56.2949 374.378 57.2839 366.982C59.6659 349.182 65.3477 340.13 81.5056 328.393C86.0611 325.083 87.2832 324.689 86.4071 326.812ZM126.55 338.264C126.583 344.255 127.08 349.596 127.867 352.442C129.131 357.008 129.131 357.008 126.855 359.798C124.577 362.588 124.577 362.588 121.651 356.482C118.81 350.555 118.725 350.096 118.725 340.829C118.725 331.282 118.725 331.282 121.792 330.009C123.48 329.31 125.228 328.718 125.678 328.695C126.176 328.67 126.517 332.409 126.55 338.264ZM296.225 338.264C296.217 343.39 293.74 353.482 290.25 362.6C288.701 366.649 286.983 371.895 286.433 374.256C285.884 376.618 285.154 378.551 284.813 378.551C283.871 378.551 278.36 369.295 276.989 365.412C275.457 361.07 275.47 359.01 277.062 353.533C279.064 346.649 282.742 341.957 289.277 337.955C292.427 336.026 295.279 334.433 295.617 334.413C295.955 334.394 296.228 336.127 296.225 338.264ZM113.817 340.595C113.817 345.361 112.302 349.145 108.036 355.034C105.482 358.56 105.409 358.51 104.042 352.375C102.532 345.596 102.825 344.588 107.723 339.691C110.219 337.193 112.612 335.367 113.04 335.631C113.467 335.895 113.817 338.128 113.817 340.595ZM372.176 338.022C373.229 339.57 377.719 344.182 382.151 348.273C392.968 358.254 394.795 361.838 394.163 371.834C393.715 378.906 391.646 386.731 390.223 386.731C389.816 386.731 389.482 386.335 389.482 385.851C389.482 383.525 382.389 367.386 378.005 359.737C373.359 351.631 370.664 344.865 369.404 338.146C368.708 334.438 369.705 334.394 372.176 338.022ZM-26.1217 347.081C-24.5683 355.652 -24.4399 357.56 -25.3397 358.738C-25.9319 359.512 -26.5054 360.284 -26.6142 360.453C-26.8612 360.836 -34.8244 352.173 -37.3087 348.816C-38.3205 347.449 -39.1492 345.926 -39.1492 345.433C-39.1492 344.551 -29.6236 336.833 -28.5348 336.833C-28.2289 336.833 -27.1426 341.445 -26.1217 347.081ZM42.33 340.309C43.5145 342.221 45.3918 344.759 46.501 345.949C48.519 348.114 48.519 348.114 43.31 354.947C36.5124 363.864 32.3546 370.791 28.6809 379.318C27.0376 383.129 25.3239 386.372 24.8723 386.522C24.4208 386.673 21.7983 382.99 19.0457 378.339C13.1299 368.344 13.0997 368.893 20.2514 356.156C22.8085 351.602 25.759 346.35 26.8069 344.485C29.6241 339.474 33.1341 336.833 36.9771 336.833C39.8572 336.833 40.3906 337.179 42.33 340.309ZM6.09106 345.217C7.63954 347.129 9.35079 349.982 9.89394 351.557C10.8518 354.331 10.7021 354.734 5.00967 364.645C1.7794 370.268 -1.57112 376.25 -2.43575 377.937C-3.30119 379.625 -4.31879 381.005 -4.69834 381.005C-5.88035 381.005 -14.6092 359.778 -14.6092 356.902C-14.6092 354.34 -1.02061 341.741 1.74258 341.741C2.58676 341.741 4.54341 343.306 6.09106 345.217ZM366.245 354.011C369.579 363.98 369.461 369.726 365.758 377.733C364.197 381.107 362.271 384.581 361.477 385.454C360.684 386.326 360.034 387.504 360.034 388.073C360.034 389.065 352.833 394.549 352.295 393.967C350.789 392.34 342.856 377.989 342.856 376.893C342.856 376.097 343.928 373.407 345.238 370.916C348.392 364.922 362.661 345.659 363.367 346.443C363.672 346.781 364.967 350.187 366.245 354.011ZM90.466 350.125C93.0705 356.389 100.729 379.882 100.729 381.61C100.729 385.464 93.6104 397.359 85.729 406.675C84.003 408.716 81.3666 412.676 79.8713 415.476C77.1514 420.565 77.1514 420.565 76.4651 416.532C75.2725 409.513 75.6602 391.796 77.1629 384.686C77.9236 381.086 79.3339 374.093 80.2975 369.144C82.2337 359.199 85.4607 349.135 87.0329 348.137C88.7556 347.044 89.32 347.37 90.466 350.125ZM337.275 354.893C339.307 361.369 339.089 363.836 335.903 370.485C334.329 373.771 333.04 376.93 333.04 377.505C333.04 378.08 332.689 378.551 332.261 378.551C331.111 378.551 329.775 373.013 329.793 368.326C329.819 361.374 333.2 349.565 334.993 350.163C335.484 350.326 336.51 352.455 337.275 354.893ZM-46.3018 364.037C-45.9778 371.755 -45.3725 376.287 -44.2003 379.757C-43.1263 382.94 -42.8048 385.101 -43.2752 385.979C-43.6711 386.719 -44.7942 389.76 -45.7709 392.735C-46.7476 395.71 -47.829 397.971 -48.1733 397.757C-49.932 396.67 -51.7807 384.186 -51.8036 373.234C-51.8257 362.903 -51.6384 361.361 -49.8871 357.487C-48.8196 355.126 -47.6785 353.193 -47.3513 353.193C-47.0241 353.193 -46.5513 358.073 -46.3018 364.037ZM119.553 360.365C122.24 365.493 122.24 365.493 119.327 371.817C117.724 375.296 116.153 379.031 115.835 380.118C115.256 382.095 115.256 382.095 113.741 380.118C112.017 377.869 108.091 368.524 108.091 366.671C108.091 364.906 115.616 353.833 116.297 354.598C116.609 354.95 118.075 357.545 119.553 360.365ZM-34.2927 360.291C-32.4645 361.856 -30.9692 363.777 -30.9692 364.56C-30.9692 366.651 -40.2134 380.268 -41.0592 379.422C-41.7741 378.707 -41.8674 358.371 -41.1598 357.228C-40.4866 356.137 -37.6866 357.387 -34.2927 360.291ZM143.265 364.446C143.265 369.371 146.501 381.241 149.051 385.673C150.855 388.807 150.92 389.319 149.944 392.597C148.48 397.51 147.393 403.7 146.269 413.525C145.31 421.915 145.31 421.915 142.476 415.57C139.123 408.062 134.526 400.07 132.229 397.751C131.325 396.839 129.206 395.245 127.518 394.209C125.831 393.172 124.411 391.893 124.364 391.367C123.962 386.94 126.922 377.81 130.697 371.83C133.352 367.624 140.496 360.555 142.092 360.555C142.946 360.555 143.265 361.613 143.265 364.446ZM302.14 361.986C302.83 362.773 304.009 364.629 304.76 366.111C306.124 368.803 306.124 368.803 301.148 374.989C298.411 378.391 295.252 382.99 294.127 385.21C291.98 389.446 290.983 389.626 289.516 386.038C288.265 382.975 288.688 379.909 291.385 372.52C295.173 362.142 298.994 358.398 302.14 361.986ZM-20.6681 370.984C-19.9262 373.571 -19.0452 376.056 -18.7107 376.506C-18.3753 376.956 -17.0877 379.9 -15.8493 383.05C-14.6108 386.199 -13.0607 389.824 -12.4047 391.105C-11.271 393.32 -11.356 393.653 -14.138 397.841C-15.747 400.264 -17.0632 402.447 -17.0632 402.691C-17.0632 403.888 -23.2137 411.173 -23.7618 410.625C-24.1095 410.278 -25.5385 405.619 -26.9365 400.273C-29.478 390.553 -29.478 390.553 -28.2166 383.088C-26.925 375.442 -23.9172 366.281 -22.6984 366.281C-22.3238 366.281 -21.41 368.397 -20.6681 370.984ZM319.058 369.922C321.129 370.993 321.408 371.657 321.903 376.671C322.205 379.729 322.673 383.52 322.942 385.095C323.433 387.958 323.433 387.958 320.801 385.504C317.585 382.504 316.38 380.228 315.082 374.704C313.678 368.73 314.603 367.618 319.058 369.922ZM308.742 376.71C309.065 378.396 308.482 379.922 306.419 382.796C302.553 388.183 298.973 395.534 297.319 401.482C295.679 407.382 294.745 406.422 294.652 398.742C294.607 394.982 295.175 392.728 297.367 387.983C299.847 382.616 306.073 374.461 307.691 374.461C308.032 374.461 308.504 375.473 308.742 376.71ZM227.518 380.614C227.518 384.428 216.156 402.928 212.666 404.795C211.374 405.487 211.158 405.285 211.158 403.382C211.158 400.804 212.365 396.722 214.535 391.958C215.378 390.109 216.066 388.318 216.066 387.977C216.066 387.637 217.386 385.561 218.999 383.364C221.516 379.935 222.327 379.369 224.725 379.369C226.681 379.369 227.518 379.742 227.518 380.614Z" fill="#DCDFBF"/>
<path fill-rule="evenodd" clip-rule="evenodd" d="M88.8806 2.55973C85.8908 6.47876 83.5366 13.0129 83.6119 17.1798C83.6888 21.431 85.2781 26.95 86.5477 27.3729C87.9375 27.8359 92.9878 23.0948 94.5011 19.9054C96.9224 14.8027 95.2021 1.07997 92.0078 0.0173885C91.4868 -0.156027 90.079 0.987535 88.8806 2.55973ZM48.033 1.31555C47.2469 2.58754 49.0645 8.76261 51.0424 11.5405C52.815 14.0297 59.2805 17.4007 60.6547 16.5516C63.0188 15.0898 60.685 7.30903 56.7832 3.64276C54.1917 1.20839 48.9598 -0.183021 48.033 1.31555ZM118.492 2.16954C116.163 3.00308 113.826 7.27958 113.821 10.7201C113.814 14.5876 116.459 19.5144 119.508 21.3156C121.621 22.5639 121.855 22.559 122.954 21.242C128.864 14.1573 125.476 -0.327807 118.492 2.16954ZM194.962 4.67098C193.118 6.00596 191.223 7.82273 190.749 8.70699C188.901 12.1589 190.259 22.6923 192.552 22.6923C194.392 22.6923 198.385 18.8976 199.782 15.8203C202.004 10.927 201.71 2.24235 199.323 2.24235C198.768 2.24235 196.806 3.33519 194.962 4.67098ZM235.953 4.90084C233.931 7.1348 232.42 11.4088 232.438 14.8387C232.454 17.9038 235.697 23.9193 237.334 23.9193C238.982 23.9193 241.589 16.559 241.68 11.6493C241.729 8.96139 241.245 6.78797 240.268 5.30984C238.466 2.58509 238.081 2.54828 235.953 4.90084ZM138.084 7.35484C132.064 13.4088 129.093 20.415 130.242 25.8506C131.687 32.685 135.262 31.9897 139.132 24.1222C142.432 17.4121 144.001 4.69634 141.529 4.69634C141.089 4.69634 139.538 5.89226 138.084 7.35484ZM150.694 8.08286C147.929 11.0506 145.465 16.9254 145.384 20.7463C145.321 23.7009 145.745 24.734 147.918 26.9066C150.238 29.2273 150.684 29.3876 151.933 28.3545C155.799 25.1537 157.436 15.8154 155.21 9.65342C153.934 6.12375 152.865 5.75156 150.694 8.08286ZM69.8302 8.52376C66.3595 9.89309 65.2257 19.5774 68.0028 24.1312C69.5832 26.7242 74.0102 30.0453 75.8933 30.051C77.2724 30.0559 79.4589 23.9774 79.4589 20.141C79.4589 13.2739 74.1198 6.83214 69.8302 8.52376ZM255.684 14.4714C249.696 16.6023 248.118 17.7892 246.308 21.5193C244.492 25.2641 244.272 28.5975 245.593 32.3864C246.858 36.0159 249.547 35.8016 253.977 31.7173C258.071 27.9431 260.772 23.0522 261.766 17.606C262.751 12.2064 262.462 12.0575 255.684 14.4714ZM173.692 15.4939C173.072 16.114 172.711 19.2207 172.711 23.9226C172.711 30.2564 173.018 31.9733 174.766 35.4155C176.854 39.5251 179.039 41.6306 182.28 42.6564C183.747 43.121 184.328 42.7423 185.437 40.5975C186.184 39.1521 186.989 35.8433 187.225 33.2445C187.573 29.404 187.313 27.8596 185.835 24.9925C183.668 20.7888 180.489 17.251 177.455 15.6665C174.787 14.2727 174.908 14.2784 173.692 15.4939ZM46.7954 22.1132C45.7353 25.3238 46.6801 31.4572 48.712 34.5574C50.5525 37.3664 56.5713 40.249 59.2126 39.5856C61.6805 38.9664 62.4355 36.1165 61.4899 30.9885C60.3946 25.0522 54.7782 19.4203 49.9537 19.4203C48.1124 19.4203 47.5161 19.9283 46.7954 22.1132ZM101.782 23.4817C100.338 24.3619 98.1436 26.613 96.9052 28.4838C94.6541 31.8858 94.6541 31.8858 96.668 33.5177C99.5653 35.8654 109.127 35.2519 113.097 32.4633C117.615 29.2903 118.062 28.3087 116.005 26.0633C112.176 21.8817 106.189 20.7946 101.782 23.4817ZM308.965 31.1938C304.194 33.8744 302.528 36.5918 302.109 42.3742C301.636 48.9231 302.551 49.8114 306.762 46.8936C308.54 45.6609 310.622 43.9595 311.389 43.1128C313.066 41.2593 313.829 35.5316 312.873 31.9701C312.18 29.3876 312.18 29.3876 308.965 31.1938ZM24.1286 31.4981C21.1577 33.4122 17.2427 47.7599 18.4166 52.4356C19.5691 57.0303 26.3724 62.7743 30.6595 62.7743C33.0759 62.7743 33.3131 62.2172 34.4592 53.8483C35.1217 49.0082 35.116 46.3448 34.4387 43.7738C33.2665 39.3288 30.0632 33.7705 27.7303 32.1369C25.6886 30.7071 25.4293 30.6604 24.1286 31.4981ZM273.61 39.2552C269.644 43.4875 268.417 45.7574 268.42 48.8462C268.423 52.0838 270.783 56.5059 273.197 57.7984C274.498 58.4937 275.021 58.3047 276.024 56.7742C278.262 53.3583 278.856 49.5014 278.062 43.5267C277.646 40.3914 277.035 37.5488 276.704 37.2102C276.373 36.8715 274.981 37.7918 273.61 39.2552ZM110.396 38.5574C105.77 39.8032 100.536 43.593 100.892 45.4392C101.558 48.9002 112.563 52.8937 118.126 51.6928C121.733 50.9141 126.887 48.2237 127.417 46.8421C128.095 45.076 124.49 40.8543 120.763 39.0498C116.909 37.184 115.709 37.1267 110.396 38.5574ZM249.847 40.775C246.102 41.858 245.87 42.8854 248.949 44.7627C251.693 46.4356 256.177 46.8585 260.984 45.8965C264.087 45.2764 263.896 44.1762 260.257 41.7108C257.415 39.7852 254.253 39.5006 249.847 40.775ZM85.7485 41.6838C83.5399 42.2695 82.0765 43.3771 80.7276 45.485C76.3055 52.3963 77.8564 56.2303 85.0745 56.2303C91.4769 56.2303 95.8189 51.4867 95.8189 44.4912C95.8189 42.285 95.4312 41.593 93.9784 41.2036C91.5686 40.5582 89.5506 40.676 85.7485 41.6838ZM156.351 46.3636C154.114 47.0245 154.085 47.7354 156.109 52.3971C158.424 57.7272 168.362 62.0978 171.358 59.1023C172.102 58.3579 172.711 57.2961 172.711 56.7415C172.711 54.4233 168.469 47.4253 166.528 46.5411C164.249 45.503 159.54 45.4212 156.351 46.3636ZM-4.40233 49.1906C-6.52913 54.2793 -5.34549 63.2446 -2.08658 66.7391C0.220993 69.2144 5.22224 71.7722 7.75231 71.7722C12.3151 71.7722 13.0268 59.7828 8.79362 54.2327C6.42388 51.126 1.839 47.7803 -1.33484 46.8421C-2.90376 46.3791 -3.37983 46.7431 -4.40233 49.1906ZM291.955 49.0728C288.618 53.4761 288.048 55.0916 288.076 60.0618C288.096 63.5874 288.526 65.3272 289.735 66.78C291.368 68.7407 291.368 68.7407 293.467 66.78C298.139 62.4152 299.088 56.7661 296.258 50.1632C295.374 48.101 294.497 46.4143 294.31 46.4143C294.122 46.4143 293.062 47.6102 291.955 49.0728ZM313.969 50.0437C307.389 52.7497 303.96 55.2724 302.392 58.5607C301.196 61.0679 301.237 64.9027 302.481 67.0246C302.966 67.8524 309.223 65.4958 312.784 63.1456C315.631 61.2667 319.51 55.1031 321.126 49.8908C321.883 47.4515 320.185 47.4883 313.969 50.0437ZM118.67 55.629C113.237 59.2896 109.147 67.7281 111.267 70.8986C112.324 72.4798 117.331 70.9968 121.398 67.8974C124.526 65.5137 127.721 59.4385 127.721 55.8744C127.721 53.9857 127.407 53.7763 124.57 53.7763C122.651 53.7763 120.344 54.5002 118.67 55.629ZM258.755 60.0863C257.716 60.2851 256.669 60.9559 256.431 61.5767C255.712 63.4507 257.763 68.3661 259.997 70.1232C262.361 71.9825 268.296 72.3833 269.889 70.7907C271.073 69.607 271.18 64.8806 270.07 62.8062C268.701 60.2475 263.923 59.099 258.755 60.0863ZM176.903 63.1882C172.873 66.8291 171.539 70.5665 172.152 76.5052C172.795 82.7285 173.706 83.3477 177.217 79.9449C181.602 75.6945 183.476 71.1579 183.183 65.5031C182.874 59.5481 181.495 59.0401 176.903 63.1882ZM335.469 64.569C331.051 69.1759 329.286 78.2598 331.51 84.9428C333.179 89.9588 334.042 90.2181 337.497 86.7424C343.744 80.4569 345.255 72.3522 341.408 65.7657C339.511 62.5174 337.772 62.1673 335.469 64.569ZM157.928 69.8483C154.221 77.5072 155.323 85.3944 160.824 90.5617C162.829 92.4447 162.829 92.4447 163.811 90.2885C164.352 89.1024 165.073 88.1322 165.415 88.1322C165.757 88.1322 166.283 85.8304 166.585 83.0165C167.006 79.0794 166.802 77.0524 165.696 74.223C164.078 70.079 161.494 66.0463 160.458 66.0463C160.079 66.0463 158.941 67.7575 157.928 69.8483ZM318.724 74.8586C310.845 82.3064 309.317 84.5985 309.317 88.9609C309.317 91.131 309.54 93.4885 309.813 94.2001C310.556 96.1355 313.475 95.7674 317.359 93.2496C321.848 90.3392 324.863 84.5077 324.847 78.7694C324.836 74.3424 324.175 70.942 323.331 70.9731C323.047 70.9837 320.973 72.7318 318.724 74.8586ZM291.321 82.3432C291.321 86.7948 294.526 90.5862 298.288 90.5862C303.192 90.5862 304.928 86.9682 302.221 82.3866C300.725 79.8524 299.057 79.162 294.388 79.1457C291.363 79.1342 291.321 79.1784 291.321 82.3432ZM352.54 81.5678C347.233 83.1711 337.947 91.4983 337.947 94.655C337.947 98.3531 352.083 97.1948 358.982 92.9314C364.563 89.4819 366.747 83.0525 362.842 81.5678C360.388 80.6344 355.631 80.6344 352.54 81.5678ZM22.1867 87.1596C16.1761 92.0267 24.7143 105.059 33.4416 104.338C36.514 104.083 36.514 104.083 36.3487 99.3036C36.2195 95.5719 35.714 93.9089 34.0444 91.72C30.0051 86.4242 25.3205 84.6222 22.1867 87.1596ZM3.35475 95.1768C2.81814 96.8022 2.54002 100.065 2.73634 102.428C3.33594 109.661 8.24311 114.094 16.7642 115.099C21.5544 115.664 21.5544 115.664 21.0137 111.51C19.9593 103.421 15.1307 95.7404 9.6607 93.4558C5.34249 91.6513 4.43696 91.8983 3.35475 95.1768ZM177.823 94.6672C174.682 96.5822 174.533 97.6374 177.006 100.448C179.955 103.799 182.684 105.31 185.777 105.307C188.901 105.304 193.74 102.794 194.515 100.776C195.165 99.082 192.634 96.403 188.662 94.5789C184.417 92.6296 181.121 92.6566 177.823 94.6672ZM349.777 100.025C347.961 100.693 345.094 102.378 343.408 103.769C339.765 106.771 340.118 107.556 346.311 110.219C354.23 113.626 370.667 111.426 370.667 106.958C370.667 101.714 357.269 97.2685 349.777 100.025ZM56.5868 110.373C54.7472 112.347 54.3717 116.853 55.7459 120.467C56.5754 122.648 61.7509 128.214 62.9492 128.214C63.912 128.214 65.5529 123.134 65.5529 120.154C65.5529 116.754 63.773 112.545 61.3991 110.334C59.0556 108.151 58.6531 108.154 56.5868 110.373ZM318.724 114.06C315.876 114.783 312.053 118.197 310.554 121.354C309.165 124.282 309.167 124.446 310.595 125.49C312.81 127.11 317.273 126.809 320.85 124.798C324.143 122.948 327.815 118.366 328.274 115.535C328.508 114.096 328.05 113.884 324.45 113.772C322.2 113.701 319.623 113.83 318.724 114.06ZM-7.91646 116.337C-12.9054 118.562 -17.8625 123.564 -17.8772 126.386C-17.8862 128.064 -12.8114 130.662 -9.51482 130.665C-4.7688 130.67 -0.288618 128.472 2.16047 124.939C4.69136 121.287 4.59729 119.573 1.74902 117.472C-1.13034 115.347 -4.74753 114.923 -7.91646 116.337ZM353.898 118.567C350.687 119.689 348.138 122.061 346.88 125.098C345.588 128.216 346.853 129.256 351.289 128.728C356.51 128.105 362.487 122.853 362.487 118.886C362.487 117.349 357.872 117.178 353.898 118.567ZM336.536 119.751C330.147 122.013 326.513 127.245 326.499 134.199C326.495 136.213 326.727 136.433 328.335 135.935C334.865 133.916 341.041 129.052 343.226 124.208C345.773 118.559 343.736 117.201 336.536 119.751ZM22.3871 121.302C14.6112 123.396 12.2857 125.134 9.15273 131.195C6.58666 136.158 6.0476 140.469 7.83002 141.773C10.6153 143.809 21.08 139.03 24.4297 134.19C28.0182 129.005 30.1287 119.961 27.7205 120.088C27.1585 120.118 24.7585 120.664 22.3871 121.302ZM40.433 122.693C39.5078 123.705 38.1099 125.798 37.3279 127.344C35.4146 131.125 36.0387 139.05 38.6678 144.351C40.3037 147.65 41.0097 148.294 43.2207 148.509C45.5758 148.736 46.0191 148.409 47.6445 145.237C49.5291 141.56 50.6866 131.837 49.7058 127.928C49.0048 125.134 45.2715 120.852 43.5365 120.852C42.7553 120.852 41.359 121.68 40.433 122.693ZM342.446 134.393C335.376 137.069 334.934 139.129 340.701 142.509C345.919 145.566 349.943 145.898 355.191 143.701C359.584 141.862 362.487 139.933 362.487 138.851C362.487 138.543 360.638 137.284 358.379 136.054C353.336 133.31 347.04 132.653 342.446 134.393ZM283.141 165.508C279.849 166.932 274.961 171.382 274.961 172.955C274.961 174.474 282.421 174.344 286.234 172.757C289.775 171.285 295.411 167.531 295.411 166.646C295.411 166.025 289.02 164.18 287.073 164.238C286.485 164.256 284.715 164.827 283.141 165.508ZM359.624 175.426C354.896 177.333 352.44 179.221 349.873 182.926C347.262 186.694 347.612 187.931 351.287 187.92C357.265 187.902 368.213 179.876 368.213 175.511C368.213 173.598 364.255 173.558 359.624 175.426ZM374.973 177.09C370.553 180.102 367.916 183.41 364.95 189.666C362.476 194.881 362.476 194.881 364.875 195.133C367.306 195.388 372.407 193.199 376.594 190.104C381.614 186.393 384.959 176.609 381.642 175.337C379.435 174.489 378.384 174.766 374.973 177.09ZM389.898 183.176C386.405 185.018 376.393 194.548 376.393 196.032C376.393 197.209 382.732 197.186 386.291 195.997C389.984 194.762 393.193 191.678 395.29 187.347C398.146 181.447 396.133 179.89 389.898 183.176ZM365.554 202.434C363.867 203.126 362.487 203.977 362.487 204.327C362.487 205.396 367.637 209.374 370.667 210.645C373.705 211.92 383.345 211.569 384.782 210.132C385.709 209.205 381.061 203.811 377.948 202.201C375.048 200.701 369.524 200.805 365.554 202.434ZM133.009 205.885C132.094 206.255 130.885 207.113 130.323 207.791C128.229 210.314 132.774 212.893 148.912 218.336C154.044 220.066 158.452 221.273 158.708 221.017C159.572 220.154 154.509 211.616 152.13 209.921C146.811 206.133 137.332 204.133 133.009 205.885ZM346.131 213.397C346.138 222.426 347.197 225.173 352.776 230.633C355.44 233.24 358.146 235.372 358.789 235.372C360.335 235.372 361.191 230.594 360.575 225.397C359.764 218.547 356.302 213.837 348.376 208.801C346.127 207.372 346.127 207.372 346.131 213.397ZM132.22 223.78C128.223 225.667 125.722 228.337 126.369 230.025C127.06 231.826 130.293 231.579 135.91 229.298C140.131 227.582 144.359 226.46 151.034 225.284C154.328 224.704 147.945 222.835 141.627 222.531C136.86 222.302 134.762 222.58 132.22 223.78Z" fill="#DCDFBF"/>
<path d="M3.53165 77.892C0.635078 79.6989 -0.0713882 78.3182 -3.81256 76.9894C-9.09192 75.1146 -12.5586 75.8941 -16.831 79.9187C-20.4637 83.3404 -23.6089 88.6247 -23.6089 91.3069C-23.6089 93.437 -20.3893 94.0832 -14.611 93.113C-6.19293 91.6987 -3.57125 89.9302 -0.574921 83.6431C0.513739 81.3604 2.05145 78.9323 3.53165 77.892Z" fill="#DCDFBF"/>
<path d="M297.783 160.545C296.409 158.946 295.465 156.633 295.116 154.008C293.958 145.306 288.475 140.948 278.642 140.914C272.916 140.893 272.916 140.893 273.051 144.815C273.214 149.534 276.128 155.713 279.264 157.99C281.918 159.918 290.964 160.802 293.6 159.391C295.071 158.604 295.51 158.856 297.079 161.395L297.783 160.545Z" fill="#DCDFBF"/>
<path d="M313.959 164.026C319.439 163.526 326.166 160.199 330.453 155.869C335.957 150.31 334.862 148.698 325.564 148.676C321.709 148.666 320.304 149.1 316.994 151.323C312.91 154.064 309.353 159.167 309.33 162.319L313.959 164.026Z" fill="#DCDFBF"/>
<path d="M336.311 185.623C336.311 184.354 335.749 181.428 335.065 179.121C333.743 174.671 330.59 171.568 327.391 171.568C325.947 171.568 325.684 172.052 325.721 174.636C325.815 181.117 330.969 183.612 336.311 185.623Z" fill="#DCDFBF"/>
<path d="M341.983 180.157C341.983 179.322 345.788 180.237 347.374 178.556C348.959 176.874 350.806 174.437 351.477 173.139C354.289 167.701 353.634 159.298 350.397 159.298C348.381 159.298 344.121 163.886 342.52 167.782C341.153 171.11 340.882 177.383 341.983 180.157Z" fill="#DCDFBF"/>
<path d="M202.581 40.6883C204.621 40.6883 209.307 35.8695 210.745 32.2932C212.145 28.8109 212.745 19.9185 211.654 18.8273C210.025 17.1986 198.699 25.8359 197.162 29.8776C196.199 32.4118 196.236 36.7913 197.243 39.44C198.855 40.8897 201.473 40.8762 202.581 40.6883Z" fill="#DCDFBF"/>
<path d="M219.712 20.806C215.551 30.6179 218.738 42.3243 225.571 42.3243C228.578 41.1734 230.303 38.1577 230.79 36.7938C232.848 31.3786 232.838 29.7876 230.718 25.4105C228.997 21.8547 226.173 19.2886 222.843 18.2547C221.309 17.7786 220.831 18.168 219.712 20.806Z" fill="#DCDFBF"/>
</g>
</svg>
