<svg width="24" height="24" viewBox="0 0 24 24" fill="none" xmlns="http://www.w3.org/2000/svg">
<g clip-path="url(#clip0_913_2260)">
<path d="M15.5676 3.01879C16.5782 3.88699 17.2443 5.08855 17.4452 6.40566H17.5726C18.8393 6.40566 20.0542 6.90889 20.95 7.80465C21.8457 8.7004 22.349 9.9153 22.349 11.1821C22.349 12.4489 21.8457 13.6638 20.95 14.5595C20.0542 15.4553 18.8393 15.9585 17.5726 15.9585H6.42755C5.16076 15.9585 3.94586 15.4553 3.05011 14.5595C2.15435 13.6638 1.65112 12.4489 1.65112 11.1821C1.65112 9.9153 2.15435 8.7004 3.05011 7.80465C3.94586 6.90889 5.16076 6.40566 6.42755 6.40566C6.6284 5.08855 7.29452 3.88699 8.30515 3.01879C9.31578 2.1506 10.604 1.67323 11.9364 1.67323C13.2687 1.67323 14.557 2.1506 15.5676 3.01879Z" fill="#D3E165" stroke="#4D341E" stroke-width="1.71" stroke-linecap="round" stroke-linejoin="round"/>
<path d="M9.4845 11.1818L11.8727 13.57V22.3268" stroke="#4D341E" stroke-width="1.71" stroke-linecap="round" stroke-linejoin="round"/>
<path d="M11.8728 13.57L14.261 11.1818" stroke="#4D341E" stroke-width="1.71" stroke-linecap="round" stroke-linejoin="round"/>
</g>
<defs>
<clipPath id="clip0_913_2260">
<rect width="24" height="24" fill="white"/>
</clipPath>
</defs>
</svg>
