<svg width="192" height="60" viewBox="0 0 192 60" fill="none" xmlns="http://www.w3.org/2000/svg">
<path d="M182.944 50.7577C181.699 50.7577 180.47 50.5908 179.256 50.2569C178.072 49.923 176.98 49.4677 175.978 48.891C174.976 48.284 174.111 47.5555 173.383 46.7057L176.934 43.1089C177.693 43.9588 178.573 44.5962 179.575 45.0211C180.576 45.446 181.684 45.6585 182.898 45.6585C183.87 45.6585 184.598 45.5219 185.084 45.2488C185.6 44.9756 185.858 44.5658 185.858 44.0195C185.858 43.4124 185.585 42.942 185.038 42.6081C184.522 42.2742 183.839 42.0011 182.989 41.7886C182.14 41.5458 181.244 41.2878 180.303 41.0146C179.393 40.7111 178.512 40.3317 177.663 39.8764C176.813 39.3907 176.115 38.7382 175.568 37.9187C175.052 37.0688 174.794 35.9761 174.794 34.6406C174.794 33.2444 175.128 32.0303 175.796 30.9983C176.494 29.9663 177.48 29.162 178.755 28.5853C180.03 28.0086 181.533 27.7203 183.263 27.7203C185.084 27.7203 186.723 28.039 188.18 28.6764C189.667 29.3138 190.896 30.2699 191.868 31.5447L188.271 35.1414C187.603 34.3219 186.844 33.73 185.994 33.3658C185.175 33.0016 184.279 32.8195 183.308 32.8195C182.428 32.8195 181.745 32.9561 181.259 33.2292C180.804 33.5024 180.576 33.8818 180.576 34.3674C180.576 34.9138 180.834 35.3387 181.35 35.6422C181.897 35.9458 182.595 36.2189 183.445 36.4618C184.295 36.6742 185.175 36.9322 186.085 37.2357C187.026 37.5089 187.907 37.9035 188.726 38.4195C189.576 38.9355 190.259 39.6184 190.775 40.4683C191.321 41.3181 191.594 42.4108 191.594 43.7463C191.594 45.9013 190.82 47.6162 189.272 48.891C187.724 50.1355 185.615 50.7577 182.944 50.7577Z" fill="url(#paint0_linear_481_1740)"/>
<path d="M164.618 50.2569V37.6455C164.618 36.3403 164.208 35.278 163.388 34.4585C162.569 33.639 161.506 33.2292 160.201 33.2292C159.351 33.2292 158.593 33.4113 157.925 33.7756C157.257 34.1398 156.726 34.6558 156.331 35.3235C155.967 35.9913 155.785 36.7653 155.785 37.6455V50.2569H149.821V28.2666H155.785V30.3274C156.328 29.7698 156.951 29.2953 157.652 28.904C158.987 28.1756 160.49 27.8113 162.159 27.8113C163.768 27.8113 165.209 28.2211 166.484 29.0406C167.759 29.8298 168.761 30.8769 169.489 32.1821C170.218 33.4569 170.582 34.8379 170.582 36.3252V50.2569H164.618Z" fill="url(#paint1_linear_481_1740)"/>
<path fill-rule="evenodd" clip-rule="evenodd" d="M129.56 49.2553C131.351 50.2265 133.4 50.7122 135.706 50.7122C137.497 50.7122 139.151 50.3935 140.669 49.7561C142.217 49.1187 143.522 48.1778 144.584 46.9333L141.079 43.4276C140.411 44.1864 139.622 44.7631 138.711 45.1577C137.801 45.5219 136.784 45.704 135.661 45.704C134.416 45.704 133.324 45.4461 132.383 44.9301C131.442 44.3837 130.713 43.6249 130.197 42.6536C130.003 42.2534 129.848 41.8265 129.731 41.3729L145.814 41.3333C145.935 40.8173 146.011 40.362 146.041 39.9675C146.102 39.5425 146.132 39.1328 146.132 38.7382C146.132 36.6439 145.662 34.7772 144.721 33.1382C143.81 31.4688 142.536 30.1636 140.897 29.2227C139.288 28.2514 137.421 27.7658 135.297 27.7658C133.142 27.7658 131.184 28.2818 129.423 29.3138C127.663 30.3154 126.267 31.6813 125.235 33.4113C124.233 35.1111 123.732 37.0536 123.732 39.239C123.732 41.4547 124.248 43.4276 125.28 45.1577C126.343 46.8878 127.769 48.2536 129.56 49.2553ZM129.737 36.9101L140.382 36.8792C140.262 36.3569 140.1 35.8839 139.895 35.4601C139.5 34.5799 138.908 33.9122 138.119 33.4569C137.361 32.9712 136.42 32.7284 135.297 32.7284C134.113 32.7284 133.081 33.0016 132.201 33.5479C131.32 34.0639 130.637 34.8076 130.152 35.7788C129.982 36.1305 129.843 36.5075 129.737 36.9101Z" fill="url(#paint2_linear_481_1740)"/>
<path fill-rule="evenodd" clip-rule="evenodd" d="M108.02 60C105.683 60 103.619 59.5751 101.828 58.7252C100.038 57.9057 98.6111 56.7371 97.5488 55.2195L101.328 51.4406C102.178 52.4423 103.118 53.2011 104.15 53.7171C105.213 54.2634 106.488 54.5366 107.975 54.5366C109.826 54.5366 111.283 54.0661 112.346 53.1252C113.438 52.1843 113.985 50.8791 113.985 49.2097V47.3856C113.426 47.9251 112.773 48.3814 112.027 48.7545C110.782 49.3615 109.356 49.665 107.747 49.665C105.774 49.665 103.999 49.1946 102.42 48.2536C100.842 47.2824 99.5976 45.962 98.687 44.2927C97.8068 42.6233 97.3667 40.7566 97.3667 38.6926C97.3667 36.6287 97.8068 34.7772 98.687 33.1382C99.5976 31.4991 100.842 30.2092 102.42 29.2682C103.999 28.297 105.774 27.8113 107.747 27.8113C109.386 27.8113 110.828 28.13 112.072 28.7674C112.819 29.1405 113.471 29.5968 114.03 30.1362V28.2666H119.949V49.1187C119.949 51.3041 119.433 53.2011 118.401 54.8097C117.399 56.4488 116.003 57.7236 114.212 58.6341C112.421 59.5447 110.357 60 108.02 60ZM108.931 44.2471C110.024 44.2471 110.965 44.0195 111.754 43.5642C112.573 43.0786 113.211 42.426 113.666 41.6065C114.121 40.7566 114.349 39.8005 114.349 38.7382C114.349 37.6455 114.121 36.6894 113.666 35.8699C113.211 35.0504 112.573 34.413 111.754 33.9577C110.965 33.472 110.024 33.2292 108.931 33.2292C107.838 33.2292 106.882 33.472 106.063 33.9577C105.243 34.413 104.606 35.0655 104.15 35.9154C103.695 36.7349 103.467 37.6758 103.467 38.7382C103.467 39.7702 103.695 40.7111 104.15 41.5609C104.606 42.3805 105.243 43.033 106.063 43.5187C106.882 44.0043 107.838 44.2471 108.931 44.2471Z" fill="url(#paint3_linear_481_1740)"/>
<path fill-rule="evenodd" clip-rule="evenodd" d="M78.5627 49.2553C80.3535 50.2265 82.4023 50.7122 84.709 50.7122C86.4998 50.7122 88.154 50.3935 89.6716 49.7561C91.2196 49.1187 92.5247 48.1778 93.5871 46.9333L90.0814 43.4276C89.4136 44.1864 88.6245 44.7631 87.7139 45.1577C86.8033 45.5219 85.7865 45.704 84.6635 45.704C83.4191 45.704 82.3264 45.4461 81.3854 44.9301C80.4445 44.3837 79.7161 43.6249 79.2001 42.6536C79.006 42.2534 78.8507 41.8265 78.7342 41.3729L94.8164 41.3333C94.9378 40.8173 95.0136 40.362 95.044 39.9675C95.1047 39.5425 95.1351 39.1328 95.1351 38.7382C95.1351 36.6439 94.6646 34.7772 93.7237 33.1382C92.8131 31.4688 91.5383 30.1636 89.8993 29.2227C88.2906 28.2514 86.4239 27.7658 84.2993 27.7658C82.1442 27.7658 80.1865 28.2818 78.4261 29.3138C76.6657 30.3154 75.2694 31.6813 74.2375 33.4113C73.2358 35.1111 72.735 37.0536 72.735 39.239C72.735 41.4547 73.251 43.4276 74.283 45.1577C75.3453 46.8878 76.7719 48.2536 78.5627 49.2553ZM78.7395 36.9101L89.3848 36.8792C89.2646 36.3569 89.1022 35.8839 88.8977 35.4601C88.5031 34.5799 87.9112 33.9122 87.122 33.4569C86.3632 32.9712 85.4223 32.7284 84.2993 32.7284C83.1155 32.7284 82.0835 33.0016 81.2033 33.5479C80.3231 34.0639 79.6402 34.8076 79.1545 35.7788C78.9844 36.1305 78.846 36.5075 78.7395 36.9101Z" fill="url(#paint4_linear_481_1740)"/>
<path fill-rule="evenodd" clip-rule="evenodd" d="M60.0774 50.7122C57.7706 50.7122 55.7218 50.2265 53.931 49.2553C52.1403 48.2536 50.7137 46.8878 49.6514 45.1577C48.6194 43.4276 48.1034 41.4547 48.1034 39.239C48.1034 37.0536 48.6042 35.1111 49.6058 33.4113C50.6378 31.6813 52.034 30.3154 53.7945 29.3138C55.5549 28.2818 57.5126 27.7658 59.6676 27.7658C61.7923 27.7658 63.659 28.2514 65.2676 29.2227C66.9067 30.1636 68.1815 31.4688 69.092 33.1382C70.033 34.7772 70.5034 36.6439 70.5034 38.7382C70.5034 39.1328 70.4731 39.5425 70.4124 39.9675C70.382 40.362 70.3061 40.8173 70.1847 41.3333L54.1026 41.3729C54.2191 41.8265 54.3744 42.2534 54.5684 42.6536C55.0844 43.6249 55.8129 44.3837 56.7538 44.9301C57.6947 45.4461 58.7874 45.704 60.0319 45.704C61.1549 45.704 62.1717 45.5219 63.0823 45.1577C63.9928 44.7631 64.782 44.1864 65.4498 43.4276L68.9555 46.9333C67.8931 48.1778 66.588 49.1187 65.04 49.7561C63.5224 50.3935 61.8682 50.7122 60.0774 50.7122ZM64.7531 36.8792L54.1078 36.9101C54.2144 36.5075 54.3528 36.1305 54.5229 35.7788C55.0085 34.8076 55.6915 34.0639 56.5717 33.5479C57.4519 33.0016 58.4839 32.7284 59.6676 32.7284C60.7907 32.7284 61.7316 32.9712 62.4904 33.4569C63.2796 33.9122 63.8714 34.5799 64.266 35.4601C64.4706 35.8839 64.633 36.3569 64.7531 36.8792Z" fill="url(#paint5_linear_481_1740)"/>
<path d="M31.2422 28.2666V50.2569H37.2064V38.1008C37.2064 36.4618 37.601 35.2477 38.3902 34.4585C39.2097 33.639 40.2568 33.2292 41.5316 33.2292C42.1387 33.2292 42.6698 33.3203 43.1251 33.5024C43.6108 33.6845 44.0205 33.9577 44.3544 34.3219L48.0877 30.0422C47.3896 29.2531 46.6157 28.6916 45.7658 28.3577C44.9159 27.9934 43.9598 27.8113 42.8975 27.8113C40.439 27.8113 38.5571 28.6005 37.252 30.1788C37.2367 30.1969 37.2215 30.2151 37.2064 30.2333V28.2666H31.2422Z" fill="url(#paint6_linear_481_1740)"/>
<path fill-rule="evenodd" clip-rule="evenodd" d="M19.5267 0.149864C18.3183 0.580639 17.1474 1.69262 16.5142 3.01059C15.4851 5.15267 15.1886 7.23566 15.4002 10.8371C15.624 14.6439 16.1265 17.2983 17.0463 19.5307C17.3843 20.3513 17.3843 20.3513 17.0049 20.8596C16.7963 21.1392 16.5724 21.4591 16.5074 21.5705C16.4133 21.7321 16.2085 21.2309 15.4966 19.0966C15.0055 17.6245 14.4989 16.2028 14.3707 15.9372C13.8206 14.7968 12.671 13.9323 11.522 13.795C10.7849 13.7068 10.2754 13.926 9.86749 14.5067C8.93073 15.8403 9.83412 17.4893 13.4059 20.965C14.3567 21.8902 15.3287 22.7662 15.5659 22.9117C15.9118 23.1237 15.9807 23.2214 15.9136 23.4051C15.8675 23.531 15.7949 50.2569 15.7949 50.2569H21.958C21.958 50.2569 21.9392 23.7232 21.4466 22.3292C21.2458 21.7611 21.2705 21.6837 21.6854 21.5798C22.3406 21.4156 23.7072 20.4165 26.1397 18.3234C27.8013 16.8936 28.6382 16.294 30.6747 15.0742C33.8907 13.1479 35.8084 11.4642 36.6118 9.86153C37.4255 8.2384 37.3724 7.21517 36.4257 6.2706C35.3006 5.14835 33.3814 5.21034 31.9362 5.5476C28.9265 6.24976 24.5155 10.1905 22.5677 13.9173C21.8055 15.3755 20.5226 18.7499 20.321 19.8267C20.1921 20.5154 20.1686 20.5463 19.9025 20.3782C19.7638 20.2906 19.7609 20.1726 19.8833 19.607C20.0853 18.6747 20.8952 15.6516 22.0257 11.6109C22.789 8.88254 23.9908 4.14107 22.4849 1.27215C21.9241 0.203568 20.6897 -0.264651 19.5267 0.149864ZM3.31944 17.8532C2.13874 18.02 1.03855 18.883 0.433572 20.1167C-0.822811 22.6787 0.823841 24.1762 3.1606 24.6669C4.10172 24.8646 6.87496 24.8947 8.25637 24.7222C9.72184 24.5394 12.5024 24.7428 13.6808 25.1192C14.5716 25.4038 14.6541 25.412 14.9137 25.2422C15.4189 24.9116 15.2792 24.6199 13.9942 23.3211C13.3354 22.6554 12.3653 21.7746 11.8384 21.3639C10.6321 20.4233 8.54205 19.0949 7.46572 18.5847C6.30004 18.0318 4.41229 17.6988 3.31944 17.8532ZM28.9544 18.3311C27.2825 18.8634 24.9394 20.2499 24.0263 21.2475C23.7089 21.5941 23.4494 21.9188 23.4494 21.9689C23.4494 22.1699 23.7797 22.3126 24.2609 22.3195C26.2953 22.349 33.1457 22.1794 33.6516 22.087C34.3431 21.9608 35.0402 21.5566 35.3311 21.1133C35.5913 20.7168 35.4986 19.8387 35.1463 19.363C33.8537 17.6178 30.7336 17.7647 28.9544 18.3311Z" fill="url(#paint7_linear_481_1740)"/>
<defs>
<linearGradient id="paint0_linear_481_1740" x1="95.9338" y1="0" x2="95.9338" y2="60" gradientUnits="userSpaceOnUse">
<stop stop-color="#D8E574"/>
<stop offset="0.0001" stop-color="#D3E165"/>
<stop offset="0.79745" stop-color="#B6BF56"/>
<stop offset="1" stop-color="#989C46"/>
</linearGradient>
<linearGradient id="paint1_linear_481_1740" x1="95.9338" y1="0" x2="95.9338" y2="60" gradientUnits="userSpaceOnUse">
<stop stop-color="#D8E574"/>
<stop offset="0.0001" stop-color="#D3E165"/>
<stop offset="0.79745" stop-color="#B6BF56"/>
<stop offset="1" stop-color="#989C46"/>
</linearGradient>
<linearGradient id="paint2_linear_481_1740" x1="95.9338" y1="0" x2="95.9338" y2="60" gradientUnits="userSpaceOnUse">
<stop stop-color="#D8E574"/>
<stop offset="0.0001" stop-color="#D3E165"/>
<stop offset="0.79745" stop-color="#B6BF56"/>
<stop offset="1" stop-color="#989C46"/>
</linearGradient>
<linearGradient id="paint3_linear_481_1740" x1="95.9338" y1="0" x2="95.9338" y2="60" gradientUnits="userSpaceOnUse">
<stop stop-color="#D8E574"/>
<stop offset="0.0001" stop-color="#D3E165"/>
<stop offset="0.79745" stop-color="#B6BF56"/>
<stop offset="1" stop-color="#989C46"/>
</linearGradient>
<linearGradient id="paint4_linear_481_1740" x1="95.9338" y1="0" x2="95.9338" y2="60" gradientUnits="userSpaceOnUse">
<stop stop-color="#D8E574"/>
<stop offset="0.0001" stop-color="#D3E165"/>
<stop offset="0.79745" stop-color="#B6BF56"/>
<stop offset="1" stop-color="#989C46"/>
</linearGradient>
<linearGradient id="paint5_linear_481_1740" x1="95.9338" y1="0" x2="95.9338" y2="60" gradientUnits="userSpaceOnUse">
<stop stop-color="#D8E574"/>
<stop offset="0.0001" stop-color="#D3E165"/>
<stop offset="0.79745" stop-color="#B6BF56"/>
<stop offset="1" stop-color="#989C46"/>
</linearGradient>
<linearGradient id="paint6_linear_481_1740" x1="95.9338" y1="0" x2="95.9338" y2="60" gradientUnits="userSpaceOnUse">
<stop stop-color="#D8E574"/>
<stop offset="0.0001" stop-color="#D3E165"/>
<stop offset="0.79745" stop-color="#B6BF56"/>
<stop offset="1" stop-color="#989C46"/>
</linearGradient>
<linearGradient id="paint7_linear_481_1740" x1="95.9338" y1="0" x2="95.9338" y2="60" gradientUnits="userSpaceOnUse">
<stop stop-color="#D8E574"/>
<stop offset="0.0001" stop-color="#D3E165"/>
<stop offset="0.79745" stop-color="#B6BF56"/>
<stop offset="1" stop-color="#989C46"/>
</linearGradient>
</defs>
</svg>
