<svg width="81" height="80" viewBox="0 0 81 80" fill="none" xmlns="http://www.w3.org/2000/svg">
<circle cx="40.9337" cy="40" r="40" fill="url(#paint0_linear_481_1737)"/>
<path fill-rule="evenodd" clip-rule="evenodd" d="M35.6522 5.34412C34.3602 5.898 33.156 8.46718 32.6932 11.6576C32.0543 16.0611 33.3238 22.5728 35.5952 26.5428C36.5722 28.2505 37.7772 28.0884 38.3466 26.1728C39.4383 22.5014 40.0434 17.3382 39.9338 12.6316C39.8398 8.59446 39.5477 7.44115 38.2741 6.0756C37.5387 5.28728 36.4764 4.99082 35.6522 5.34412ZM53.374 8.52517C49.1642 9.69704 44.2099 14.9814 42.3619 20.2708C41.4903 22.7654 41.0626 25.7181 41.4327 26.6829C41.6697 27.3003 42.6838 27.0423 43.901 26.0551C44.5322 25.5434 46.5127 24.1116 48.3022 22.8737C54.7154 18.4371 57.7169 15.7527 58.8907 13.4038C59.9533 11.2773 59.5837 9.55713 57.8855 8.72517C56.8913 8.23828 54.7464 8.14316 53.374 8.52517ZM22.4498 18.3413C21.3893 18.8394 20.8381 19.5824 20.8381 20.5139C20.8381 22.6201 22.719 23.8274 27.2042 24.5998C28.1764 24.7671 29.8084 25.1273 30.8308 25.4002C32.396 25.8178 32.7382 25.8561 32.9964 25.6417C33.4293 25.2823 33.2207 24.6381 32.2149 23.2285C31.0088 21.5384 28.8358 19.6226 27.2101 18.8161C25.4599 17.9479 23.6679 17.7692 22.4498 18.3413ZM58.0371 19.6159C56.3437 19.9841 54.7489 20.6737 52.8823 21.8446C50.0084 23.6473 48.4031 25.3319 48.6919 26.2417C48.8115 26.619 48.9416 26.6257 54.8739 26.565C60.5661 26.5066 61.0017 26.4773 62.0543 26.0819C64.071 25.324 65.0486 24.2768 65.0486 22.8743C65.0486 20.1039 62.0982 18.7328 58.0371 19.6159ZM17.106 24.4877C14.5841 24.894 12.8792 25.7799 12.0237 27.1286C10.5475 29.4567 12.0561 31.1332 15.5749 31.0752C16.6478 31.0576 18.1054 30.8086 20.4461 30.2436C22.5307 29.7405 24.5338 29.3839 25.7743 29.2953C27.6488 29.1615 28.0963 29.0052 28.1079 28.4796C28.1227 27.8061 24.743 25.6769 22.5692 24.9902C20.941 24.476 18.5466 24.2557 17.106 24.4877ZM61.1252 27.8438C58.5401 28.5428 56.7667 29.4735 56.6637 30.1851C56.5619 30.8898 57.1393 31.0155 59.0017 30.6942C61.0092 30.3478 61.8574 30.4829 64.1634 31.5169C66.9194 32.7527 68.685 32.4526 68.685 30.7485C68.685 30.0752 68.5653 29.8622 67.7401 29.0668C67.0821 28.4325 66.4905 28.0655 65.7914 27.8578C64.5778 27.4974 62.4297 27.4909 61.1252 27.8438ZM31.4601 28.7481C30.4253 29.1091 29.7079 29.813 29.0721 31.0917C28.7278 31.7839 28.181 32.5736 27.8568 32.8463C27.0187 33.5516 25.839 33.4153 23.6584 32.3615C22.1108 31.6136 21.9296 31.568 21.3125 31.7717C20.3397 32.0928 20.2009 32.4951 20.355 34.5504C20.4492 35.8063 20.4239 36.3606 20.2677 36.457C20.1376 36.5374 19.6815 36.1946 19.1504 35.617C18.657 35.0804 18.1041 34.6412 17.9219 34.6412C17.7397 34.6412 17.3211 34.8817 16.9921 35.1759L16.3937 35.7106L16.6197 38.4773C18.0957 56.5441 27.457 70.352 39.3148 71.9527C42.5996 72.396 46.5204 71.3252 50.1303 68.9989C58.4025 63.6678 64.3007 51.3862 65.164 37.6942L65.2913 35.6754L64.6769 35.1583C64.3388 34.8739 63.9234 34.6412 63.7537 34.6412C63.5839 34.6412 63.0381 35.0813 62.5407 35.6195C61.3921 36.8624 61.1141 36.7529 61.3246 35.1411C61.6459 32.6804 61.4919 32.1439 60.3556 31.769C59.7705 31.5759 59.5642 31.6295 58.0727 32.3615C55.0989 33.8216 53.9028 33.5728 52.729 31.2502C51.9533 29.7154 51.453 29.2065 50.3305 28.8105C49.3382 28.4603 48.5255 28.6333 45.9098 29.7512C43.8631 30.626 41.8486 31.1962 40.804 31.1962C39.8664 31.1962 37.6844 30.5386 35.1537 29.4936C33.0831 28.6385 32.2542 28.4712 31.4601 28.7481ZM30.5728 41.3169C32.8268 42.0184 34.8601 44.1336 35.3854 46.3236C35.7525 47.8536 35.5508 50.0345 34.9299 51.2505C33.8442 53.3772 32.0834 54.5445 29.7345 54.6953C26.5701 54.8984 23.8277 52.9617 22.7468 49.7608C21.8984 47.2486 22.5818 44.3562 24.4251 42.657C26.141 41.0754 28.2911 40.6067 30.5728 41.3169ZM55.9763 41.7173C58.2117 42.8178 59.4109 44.9087 59.3822 47.6555C59.3617 49.6111 58.8122 50.9774 57.4587 52.4394C56.0572 53.9533 54.7587 54.5851 52.8264 54.6928C51.6589 54.7579 51.1466 54.6921 50.2836 54.3665C47.4117 53.2825 45.6811 50.1116 46.2855 47.0398C47.23 42.239 51.8651 39.6934 55.9763 41.7173ZM27.8494 44.0144C26.0886 44.5761 24.9579 46.1158 24.9648 47.9426C24.9707 49.5635 25.7604 50.8423 27.2455 51.6366C28.0082 52.0442 29.9359 52.0442 30.6986 51.6366C32.1812 50.8436 32.972 49.5646 32.9824 47.9426C32.992 46.4593 32.3049 45.2069 31.0919 44.4961C30.1722 43.9571 28.7097 43.7399 27.8494 44.0144ZM51.378 44.1014C50.2298 44.5273 49.1673 45.7022 48.8603 46.8856C48.4903 48.3116 48.7757 49.4838 49.7665 50.6094C51.6683 52.77 55.026 52.3267 56.3123 49.7453C56.6145 49.139 56.8172 48.4155 56.8147 47.9529C56.8103 47.1365 56.2559 45.7085 55.7079 45.1028C54.7967 44.0949 52.7018 43.6105 51.378 44.1014ZM45.0942 61.7788C45.7204 62.1323 45.8126 62.7969 45.3592 63.6857C44.5378 65.2961 43.231 65.9309 40.7366 65.9319C39.3611 65.9323 38.9546 65.8555 38.1546 65.4438C37.0396 64.8699 36.0854 63.6392 36.0854 62.7749C36.0854 61.5998 36.7095 61.4444 41.2208 61.4968C43.577 61.524 44.8011 61.6132 45.0942 61.7788Z" fill="url(#paint1_linear_481_1737)"/>
<defs>
<linearGradient id="paint0_linear_481_1737" x1="40.9337" y1="0" x2="40.9337" y2="80" gradientUnits="userSpaceOnUse">
<stop stop-color="#D8E574"/>
<stop offset="0.0001" stop-color="#D3E165"/>
<stop offset="0.79745" stop-color="#B6BF56"/>
<stop offset="1" stop-color="#989C46"/>
</linearGradient>
<linearGradient id="paint1_linear_481_1737" x1="40.0727" y1="5.1967" x2="40.0727" y2="72.0509" gradientUnits="userSpaceOnUse">
<stop stop-color="#3A2F19"/>
<stop offset="1" stop-color="#1E0F09"/>
</linearGradient>
</defs>
</svg>
