<svg width="24" height="24" viewBox="0 0 24 24" fill="none" xmlns="http://www.w3.org/2000/svg">
<path d="M14.8538 4.81497C15.6623 5.50953 16.1952 6.47078 16.3559 7.52447H16.4578C17.4712 7.52447 18.4432 7.92705 19.1597 8.64366C19.8763 9.36026 20.279 10.3322 20.279 11.3456C20.279 12.359 19.8763 13.331 19.1597 14.0476C18.4432 14.7642 17.4712 15.1668 16.4578 15.1668H7.54182C6.52839 15.1668 5.55646 14.7642 4.83986 14.0476C4.12326 13.331 3.72067 12.359 3.72067 11.3456C3.72067 10.3322 4.12326 9.36026 4.83986 8.64366C5.55646 7.92705 6.52839 7.52447 7.54182 7.52447C7.70249 6.47078 8.23539 5.50953 9.04389 4.81497C9.8524 4.12042 10.883 3.73853 11.9489 3.73853C13.0147 3.73853 14.0453 4.12042 14.8538 4.81497Z" stroke="#634C2C" stroke-width="2" stroke-linecap="round" stroke-linejoin="round"/>
<path d="M9.98761 11.3455L11.8982 13.256V20.2615" stroke="#634C2C" stroke-width="2" stroke-linecap="round" stroke-linejoin="round"/>
<path d="M11.8982 13.256L13.8087 11.3455" stroke="#634C2C" stroke-width="2" stroke-linecap="round" stroke-linejoin="round"/>
</svg>
