<svg width="80" height="80" viewBox="0 0 80 80" fill="none" xmlns="http://www.w3.org/2000/svg">
<circle cx="40" cy="40" r="39.5" fill="url(#paint0_linear_194_96)" stroke="#9EA74E" stroke-dasharray="4 4"/>
<path d="M41.076 27.0155C41.4159 27.0027 41.872 26.8196 42.3897 26.4799L42.1154 26.0618C42.2854 25.9503 42.4653 25.8186 42.6525 25.6668L42.6525 25.6667C42.8819 25.4808 43.2725 25.1858 43.7532 24.8324L44.0493 25.2353C44.6678 24.7806 45.449 24.2194 46.2553 23.6512L45.9673 23.2425C46.3386 22.9808 46.7154 22.7176 47.0841 22.4625C47.5937 22.11 48.0815 21.7687 48.5483 21.4379L48.8374 21.8459C49.9049 21.0894 50.8642 20.3869 51.7246 19.7301L51.4212 19.3326C52.4867 18.5191 53.3958 17.7789 54.1682 17.0953L54.4996 17.4698C55.5634 16.5283 56.3781 15.6871 56.9896 14.9049L56.5957 14.5969C56.9874 14.096 57.2862 13.6278 57.5098 13.1803C57.7164 12.767 57.8609 12.3783 57.9488 12.018L58.4346 12.1364C58.6852 11.1093 58.5391 10.2245 58.0118 9.55398L57.6187 9.86305C57.4107 9.59851 57.1194 9.364 56.732 9.17421L41.076 27.0155ZM41.076 27.0155L41.0573 26.5158C41.0072 26.5177 40.9797 26.512 40.9678 26.5084C40.9677 26.5082 40.9676 26.5079 40.9675 26.5077C40.967 26.5065 40.9665 26.5052 40.9659 26.5038C40.8799 26.2796 40.8374 25.8015 40.8862 25.0941L40.3874 25.0596C40.4509 24.1407 40.6498 22.9933 40.9524 21.8375L41.4361 21.9641C41.571 21.4485 41.7269 20.9322 41.9003 20.4357C42.1172 19.8151 42.3788 19.1928 42.6789 18.5759L42.2293 18.3571C42.8243 17.1343 43.5638 15.9389 44.3983 14.8236L44.7987 15.1231C45.6249 14.019 46.5455 12.9962 47.5095 12.1082L47.1707 11.7405C48.2548 10.7418 49.3947 9.90717 50.5231 9.30858L50.7574 9.75028C51.3784 9.42088 51.9881 9.17007 52.5745 9.00684C52.8779 8.92237 53.2332 8.86148 53.6147 8.82611L53.5685 8.32824C54.3308 8.25756 55.1578 8.28583 55.855 8.40443M41.076 27.0155L55.855 8.40443M55.855 8.40443L55.7711 8.89735C56.176 8.96621 56.5054 9.06321 56.732 9.17417L55.855 8.40443ZM17.5489 24.3956C18.4178 24.3984 19.3939 24.4927 20.2949 24.6616L20.2028 25.153C20.6641 25.2396 21.1 25.3454 21.485 25.467C21.9299 25.6076 22.4381 25.8156 22.9645 26.0654L23.1788 25.6137C24.211 26.1036 25.2787 26.7339 26.0504 27.2961L25.756 27.7002C26.0846 27.9396 26.3414 28.1546 26.5099 28.3287C26.585 28.4063 26.6334 28.4663 26.6617 28.5084C26.6507 28.5153 26.6342 28.5244 26.6104 28.5351L26.8151 28.9913C26.5628 29.1045 26.1523 29.1787 25.5073 29.2407L25.4595 28.743C25.2657 28.7616 25.0485 28.7792 24.8052 28.7966C24.4065 28.825 23.9385 28.8796 23.4231 28.9554L23.4959 29.4501C22.7095 29.5659 21.7971 29.7342 20.8328 29.942L20.7275 29.4532C20.2915 29.5471 19.8452 29.649 19.3952 29.7576C18.9669 29.861 18.569 29.9535 18.1984 30.0359L18.3069 30.524C17.3322 30.7405 16.5396 30.8879 15.8739 30.9756L15.8086 30.4799C15.3559 30.5396 14.9709 30.5697 14.6331 30.5753L14.6331 30.5753C14.0093 30.5856 13.462 30.5385 12.9948 30.445L12.8967 30.9353C11.3648 30.6287 10.518 29.8425 10.5269 28.766L11.0269 28.7702C11.03 28.399 11.169 27.9379 11.5124 27.3964L17.5489 24.3956ZM17.5489 24.3956L17.5473 24.8956C17.058 24.894 16.6156 24.9227 16.252 24.9813C15.753 25.0617 15.2902 25.1609 14.8632 25.2783L14.7307 24.7962C13.642 25.0956 12.7574 25.5129 12.0809 26.0462L12.3904 26.4389C12.0258 26.7263 11.7347 27.0459 11.5124 27.3964L17.5489 24.3956ZM31.4742 28.6347C31.9406 28.6736 32.5147 28.8328 33.3257 29.1384L33.1494 29.6063C33.4134 29.7057 33.7049 29.8218 34.0292 29.9557L34.0292 29.9557C34.5072 30.1531 34.9733 30.3369 35.4215 30.5055L35.5975 30.0374C36.6696 30.4405 37.6361 30.7539 38.4137 30.9526L38.29 31.437C38.9181 31.5975 39.4675 31.6962 39.8704 31.6962C40.2669 31.6962 40.7573 31.6259 41.2959 31.5076L41.1887 31.0192C41.9267 30.8572 42.8081 30.5903 43.7381 30.2454L43.912 30.7142C44.3257 30.5607 44.7486 30.3922 45.1727 30.211C45.5658 30.043 45.9159 29.8973 46.2307 29.7721L46.0458 29.3075C47.053 28.9068 47.7195 28.7057 48.2593 28.6588L48.3026 29.1569C48.645 29.1272 48.9184 29.1719 49.2305 29.282L49.2306 29.282C49.5158 29.3827 49.7413 29.4854 49.9341 29.6049L50.1975 29.18C50.6513 29.4612 50.9975 29.8461 51.3733 30.4741L50.9442 30.7308C51.071 30.9427 51.2038 31.1881 51.3491 31.4757C51.646 32.063 51.9595 32.5546 52.322 32.93L52.6817 32.5828C53.4189 33.3464 54.3033 33.4603 55.6634 32.993L55.8259 33.4658C56.2911 33.306 56.7996 33.0853 57.3595 32.8103C57.5646 32.7097 57.7435 32.6228 57.9016 32.548L57.6877 32.096C58.2491 31.8303 58.5668 31.7075 58.8254 31.6797L58.8789 32.1768C58.9789 32.166 59.0664 32.1782 59.2653 32.2438L59.2653 32.2438C59.6152 32.3593 59.7711 32.4638 59.8585 32.5746L60.2511 32.2649C60.5285 32.6165 60.5884 33.169 60.5011 34.1661L60.003 34.1225C59.9787 34.3992 59.9424 34.7146 59.8952 35.0763C59.858 35.3609 59.834 35.6119 59.8279 35.8247L60.3277 35.839C60.3067 36.5718 60.5314 36.6499 61.1145 36.1176L61.4516 36.4869C61.6084 36.3438 61.7826 36.1662 61.9743 35.9589C62.0592 35.867 62.1457 35.7781 62.2312 35.6942L61.8812 35.3372C62.0956 35.127 62.3047 34.9462 62.4752 34.8216L62.7703 35.2252C62.8023 35.2018 62.8301 35.1827 62.8535 35.1675C62.8567 35.1689 62.8599 35.1704 62.8633 35.172L62.8704 35.1567C62.8881 35.1456 62.9029 35.1371 62.9146 35.1309C62.9237 35.1261 62.928 35.1243 62.928 35.1243C62.928 35.1243 62.9264 35.1249 62.9233 35.126C62.9188 35.1275 62.9084 35.1309 62.893 35.1341C62.8892 35.1348 62.8848 35.1357 62.8798 35.1365L63.0742 34.7187C63.2098 34.7818 63.3722 34.8791 63.5321 34.9941L63.2402 35.4C63.3023 35.4447 63.3636 35.4922 63.4215 35.5409L63.5749 35.6701L63.8969 35.2876L64.2041 35.5461L64.1085 35.6597L63.8587 35.6439L63.8269 36.1486L64.3259 36.1801L64.2622 37.1895L63.7632 37.158L63.7314 37.6627C63.6845 38.406 63.6227 39.145 63.5463 39.879L64.0436 39.9307C63.8872 41.4344 63.6702 42.9169 63.3965 44.3705L62.9051 44.278C62.6273 45.7534 62.2904 47.1986 61.8985 48.6053L62.3801 48.7395C61.972 50.2046 61.5045 51.6289 60.9822 53.0033L60.5148 52.8257C59.9782 54.2374 59.3835 55.5951 58.7354 56.8887L59.1825 57.1126C58.496 58.4831 57.7499 59.7836 56.9498 61.0026L56.5318 60.7283C55.6994 61.9966 54.8089 63.1736 53.8673 64.2462L54.243 64.5761C53.2247 65.7361 52.1457 66.7784 51.014 67.6866L50.7011 67.2967C50.1222 67.7612 49.5301 68.1891 48.9259 68.5786C48.1237 69.0955 47.3068 69.5484 46.4861 69.9347L46.699 70.3871C44.8622 71.2515 43.0019 71.7925 41.2336 71.9784L41.1813 71.4812C40.2306 71.5811 39.3134 71.574 38.4481 71.4572C37.7494 71.3629 37.0594 71.2249 36.3792 71.0449L36.2513 71.5282C34.8636 71.1609 33.5168 70.624 32.2203 69.9312L32.456 69.4902C31.2383 68.8395 30.0634 68.0465 28.94 67.122L28.6223 67.5081C27.534 66.6125 26.4953 65.598 25.5132 64.4751L25.8895 64.1459C24.9788 63.1046 24.1163 61.9669 23.3083 60.7412L22.8909 61.0164C22.1146 59.8387 21.3889 58.5825 20.7189 57.2551L21.1653 57.0298C20.5359 55.783 19.9558 54.4717 19.4296 53.1023L18.9629 53.2817C18.4543 51.9583 17.9958 50.5822 17.5912 49.1589L18.0722 49.0222C17.6874 47.6686 17.3516 46.2713 17.0684 44.8354L16.5779 44.9321C16.3025 43.5362 16.0765 42.1045 15.9028 40.6416L16.3993 40.5826C16.3152 39.8746 16.2435 39.159 16.1844 38.4366L16.1279 37.7449L15.6296 37.7856L15.5166 36.4023L16.0149 36.3616L15.9584 35.6699L15.7108 35.6901L15.6097 35.5769L15.9089 35.3096L16.2421 35.6824L16.3917 35.5487L16.3918 35.5486C16.4478 35.4986 16.5077 35.4497 16.569 35.4036L16.2687 35.0039C16.4278 34.8843 16.5915 34.7836 16.7299 34.7188L16.925 35.1356C16.9244 35.1355 16.9238 35.1354 16.9232 35.1353C16.9093 35.1326 16.8999 35.1297 16.8958 35.1284C16.8934 35.1276 16.8921 35.1271 16.892 35.1271C16.8919 35.1271 16.8948 35.1282 16.901 35.1312C16.9024 35.1319 16.904 35.1327 16.9058 35.1336C16.9129 35.1372 16.921 35.1416 16.9302 35.1468L16.9419 35.1717C16.9478 35.1689 16.9535 35.1663 16.9589 35.1639C16.9837 35.1792 17.0137 35.1991 17.0489 35.2242L17.3389 34.8168C17.5129 34.9407 17.725 35.1217 17.9407 35.3324L17.5913 35.6901C17.6773 35.7741 17.764 35.8633 17.8488 35.9554L17.8488 35.9555C17.9386 36.0531 18.0269 36.145 18.1128 36.2304L18.4652 35.8757C18.6717 36.081 18.8586 36.2411 19.0083 36.3429L18.7271 36.7563C18.8204 36.8199 18.9282 36.8834 19.0408 36.9235C19.1225 36.9525 19.3625 37.0272 19.5969 36.8824C19.7919 36.762 19.8676 36.5674 19.9008 36.4566C19.9386 36.3299 19.9573 36.1851 19.967 36.0368L19.468 36.0043C19.4829 35.7765 19.4779 35.4585 19.4538 35.0349L19.953 35.0065C19.9443 34.8546 19.9333 34.6903 19.92 34.513C19.8972 34.2092 19.8813 33.9463 19.8735 33.7172L19.3738 33.7342C19.3452 32.8974 19.4194 32.4503 19.6743 32.1665L20.0463 32.5006C20.1153 32.4238 20.2406 32.3439 20.5357 32.2465C20.7524 32.175 20.8434 32.1607 20.9447 32.1701L20.9904 31.6722C21.2545 31.6964 21.5763 31.8193 22.1603 32.0922L21.9487 32.5452C22.1112 32.6211 22.2955 32.7094 22.5072 32.8117L22.5072 32.8117C22.8826 32.9931 23.2324 33.1496 23.5591 33.2806L23.7452 32.8165C24.6526 33.1804 25.3488 33.3294 25.9099 33.2723L25.9605 33.7698C26.4569 33.7193 26.8802 33.536 27.2452 33.2289M31.4742 28.6347L27.2845 32.4515L27.6778 32.7602C27.5365 32.9403 27.3868 33.1097 27.2452 33.2289M31.4742 28.6347L31.4327 29.133C31.1408 29.1087 30.915 29.1422 30.6912 29.2202C30.4455 29.3059 30.2248 29.4119 30.0224 29.5413L29.7531 29.1201L31.4742 28.6347ZM27.2452 33.2289C27.2452 33.2289 27.2451 33.2289 27.2451 33.2289L26.9232 32.8463L27.2452 33.2289ZM36.9923 65.8884L36.9922 65.8884C36.7025 65.7392 36.4266 65.5534 36.1738 65.346L36.491 64.9595C36.0161 64.5697 35.6183 64.0845 35.3827 63.6136L34.9355 63.8373C34.7672 63.5008 34.6518 63.1341 34.6518 62.7749C34.6518 62.467 34.6873 62.1244 34.883 61.8251C35.0867 61.5135 35.4057 61.334 35.7859 61.223L35.9261 61.703C36.4648 61.5456 37.3599 61.492 38.8274 61.4883L38.8261 60.9883C39.2639 60.9872 39.7513 60.9906 40.293 60.9969C40.6441 61.0009 40.9706 61.0063 41.2732 61.0132L41.2618 61.5131C42.0904 61.5319 42.7343 61.5614 43.2075 61.6026L43.2509 61.1045C43.5146 61.1275 43.7381 61.1549 43.9183 61.1883C44.0836 61.2189 44.2645 61.2632 44.4065 61.3434M36.9923 65.8884L44.5563 62.1399L44.9777 61.8708C44.8361 61.6492 44.6392 61.4748 44.4065 61.3434M36.9923 65.8884C37.2253 66.0083 37.4396 66.108 37.6601 66.1866L37.8281 65.7157C38.1976 65.8475 38.5632 65.9031 39.1372 65.9227L39.1201 66.4225C39.3232 66.4294 39.5487 66.4319 39.8032 66.4319C40.3203 66.4317 40.7954 66.4051 41.2322 66.3477L41.167 65.8519C42.2453 65.7101 43.0328 65.3732 43.6324 64.7911M36.9923 65.8884L43.6324 64.7911M44.4065 61.3434L44.1606 61.7787L44.4063 61.3433C44.4064 61.3434 44.4065 61.3434 44.4065 61.3434ZM43.6324 64.7911L43.9807 65.1499C44.3368 64.8042 44.6272 64.3909 44.871 63.9129C44.972 63.7151 45.0526 63.5199 45.1097 63.3286L44.6307 63.1855L43.6324 64.7911ZM36.9337 26.0303L36.9337 26.0304C36.8296 26.3805 36.708 26.6465 36.583 26.838L37.0017 27.1113C36.5319 27.831 35.8982 27.9212 35.2826 27.3572L35.6203 26.9885C35.4567 26.8386 35.2775 26.6124 35.0956 26.2945L34.6616 26.5428L35.0956 26.2945C34.8016 25.7806 34.5233 25.2198 34.2636 24.6226L33.8051 24.822C33.3179 23.7021 32.8983 22.4668 32.5596 21.1847L33.043 21.057C32.7223 19.8429 32.4752 18.5858 32.3138 17.3468L31.818 17.4114C31.6457 16.0887 31.5692 14.7856 31.6022 13.5729L32.102 13.5866C32.1198 12.9332 32.1701 12.3104 32.2544 11.7294C32.3412 11.1313 32.4545 10.5567 32.5897 10.0154L32.1046 9.89427C32.4401 8.55058 32.9078 7.39792 33.4426 6.57501L33.8619 6.8475C34.2351 6.27323 34.602 5.93811 34.9156 5.80366L34.7187 5.34432L34.9157 5.80366C35.0729 5.73624 35.2467 5.70016 35.4313 5.69692L35.4226 5.197C35.8796 5.18898 36.3584 5.33373 36.7876 5.61132L36.5161 6.03118C36.6784 6.13615 36.8334 6.26503 36.9748 6.41663C37.3774 6.84824 37.6579 7.23777 37.8651 7.70155L38.3216 7.49761C38.6751 8.28902 38.8467 9.29017 38.9363 10.8958L38.437 10.9236C38.4652 11.4291 38.4853 11.9976 38.5003 12.6432C38.5133 13.2017 38.5162 13.7669 38.5092 14.3356L39.0092 14.3417C38.9953 15.4768 38.9428 16.6244 38.8547 17.7586L38.3562 17.7199C38.2672 18.8654 38.1416 19.9965 37.9827 21.0858L38.4775 21.158C38.3054 22.3375 38.0946 23.4695 37.8489 24.52L37.3621 24.4061C37.2291 24.975 37.086 25.5182 36.9337 26.0303ZM25.1356 18.3483C24.2783 18.0695 23.4433 17.9615 22.7044 18.0316L22.7516 18.5294C22.3656 18.566 22.0219 18.6561 21.7288 18.7938C21.5223 18.8908 21.3427 18.9957 21.1885 19.1066L20.8964 18.7008C20.4651 19.0111 20.1715 19.3833 20.0214 19.8095L20.4931 19.9756C20.4351 20.14 20.4045 20.3187 20.4045 20.5139C20.4045 21.1264 20.5887 21.6258 20.9804 22.0607L20.6089 22.3953C21.287 23.1482 22.4744 23.7246 24.2557 24.1788L24.3792 23.6943C24.9664 23.844 25.6237 23.981 26.3555 24.1071C26.6258 24.1536 26.9435 24.2142 27.2823 24.2831L27.1828 24.773C27.7617 24.8907 28.4097 25.034 28.9967 25.1741L29.1128 24.6878C29.4424 24.7665 29.7545 24.8446 30.0262 24.9171C30.2245 24.97 30.402 25.0165 30.5615 25.057L30.4385 25.5416C30.9567 25.6732 31.296 25.7445 31.5334 25.7641L31.5745 25.2658C31.679 25.2744 31.7217 25.2666 31.733 25.2637C31.7342 25.2634 31.735 25.2632 31.7355 25.263C31.7368 25.2622 31.7393 25.2604 31.7434 25.257C31.7582 25.2447 31.7649 25.2363 31.7676 25.2325C31.7683 25.2315 31.7689 25.2306 31.7694 25.2297C31.7706 25.2278 31.7712 25.2262 31.7718 25.2243C31.7733 25.2198 31.7826 25.1887 31.7686 25.11L32.261 25.0227C32.2078 24.7229 32.0151 24.3277 31.669 23.7948L31.2497 24.0672C31.1417 23.901 31.017 23.7188 30.8743 23.5189C30.5859 23.1147 30.2358 22.6922 29.8461 22.2725L30.2125 21.9323C29.4544 21.116 28.5641 20.3244 27.7038 19.7005L27.4102 20.1053C26.9299 19.757 26.4679 19.4692 26.0544 19.264C25.6949 19.0857 25.3351 18.9389 24.981 18.8238L25.1356 18.3483ZM62.1907 25.6005C63.0152 25.1529 63.5705 24.6259 63.8647 24.0108L63.4137 23.795C63.5469 23.5166 63.615 23.2126 63.615 22.8743C63.615 22.1684 63.3958 21.5891 63.0103 21.1328L63.3923 20.8102C62.5832 19.8524 61.1429 19.3275 59.3184 19.3503L59.3246 19.8503C58.6736 19.8584 57.9645 19.9404 57.2098 20.1045C56.7687 20.2004 56.3348 20.3189 55.9007 20.4631L55.743 19.9886C54.9001 20.2686 54.0568 20.6419 53.1651 21.129L53.4049 21.5678C53.02 21.7781 52.6246 22.0108 52.2144 22.2681L51.9487 21.8446L52.2144 22.2682C51.7494 22.5598 51.3195 22.8475 50.9272 23.1283L50.6362 22.7217C49.5771 23.4797 48.7765 24.195 48.2856 24.8141L48.6773 25.1248C48.4695 25.3868 48.3416 25.6065 48.2766 25.7806C48.2351 25.8915 48.2241 25.9697 48.2251 26.0228C48.3705 26.0503 48.6561 26.0745 49.2194 26.0856L49.2095 26.5855C49.8801 26.5988 50.8754 26.5942 52.3619 26.5805L52.3573 26.0806C52.8313 26.0762 53.3554 26.0709 53.9352 26.065C54.6083 26.0581 55.2076 26.0516 55.7429 26.0449L55.7492 26.5448C57.5515 26.5221 58.632 26.4967 59.3603 26.4435L59.3239 25.9448C60.1621 25.8837 60.4801 25.7884 60.9449 25.6138C61.3238 25.4714 61.6588 25.3204 61.9521 25.1611L62.1907 25.6005ZM26.6866 28.5512C26.6865 28.5511 26.6858 28.5498 26.6849 28.5473C26.6862 28.55 26.6866 28.5512 26.6866 28.5512ZM26.681 28.494C26.6811 28.494 26.6807 28.4944 26.6799 28.4952C26.6806 28.4944 26.681 28.494 26.681 28.494ZM60.3221 28.3265L60.3221 28.3265C60.6288 28.2435 60.9976 28.1799 61.4011 28.1386L61.3501 27.6412C62.1114 27.5633 62.9564 27.564 63.7018 27.643L63.6491 28.1402C64.0597 28.1837 64.4248 28.2508 64.7154 28.3371C64.8808 28.3862 65.0381 28.445 65.1908 28.5153L65.3997 28.061C65.7327 28.2142 66.05 28.4162 66.3744 28.6812L66.058 29.0684C66.1881 29.1747 66.3213 29.2936 66.4595 29.4268L66.4595 29.4268C66.5951 29.5575 66.7079 29.6689 66.8027 29.7674L67.163 29.4207C67.491 29.7616 67.6411 29.983 67.706 30.2498L67.2202 30.3681C67.2412 30.4541 67.2514 30.5646 67.2514 30.7485C67.2514 31.1861 67.1098 31.4231 66.9193 31.5599L67.2111 31.966C66.6689 32.3556 65.7405 32.3755 64.526 32.0087L64.6705 31.5301C64.2921 31.4158 63.879 31.26 63.4344 31.0607C62.9677 30.8514 62.5541 30.6759 62.175 30.5326L61.9982 31.0003C60.9922 30.62 60.2693 30.4869 59.3924 30.5314L59.3671 30.032C58.9425 30.0536 58.4927 30.1135 57.9831 30.2014C57.7341 30.2444 57.5112 30.2787 57.3122 30.3045L57.3763 30.8004C56.6883 30.8893 56.2456 30.8834 55.9924 30.7704L56.195 30.3163C56.2046 30.3258 56.213 30.3381 56.218 30.3498C56.2199 30.3542 56.2207 30.357 56.2209 30.3577C56.2211 30.3585 56.2205 30.3568 56.22 30.3517C56.2198 30.3503 56.2197 30.3486 56.2195 30.3467C56.2183 30.3309 56.2184 30.3021 56.225 30.2567C56.2247 30.2586 56.2357 30.1995 56.3469 30.0809C56.4531 29.9677 56.6197 29.8336 56.8554 29.6852L56.5891 29.262C57.15 28.9089 57.9609 28.5483 58.9516 28.2169L59.1102 28.6911C59.4875 28.5648 59.8928 28.4425 60.3221 28.3265ZM27.8827 31.5626L28.314 31.8155C28.4112 31.6496 28.5037 31.4803 28.5862 31.3143L28.5863 31.3143C28.7158 31.0537 28.8468 30.8227 28.9811 30.6175L28.5627 30.3438C28.4159 30.568 28.2754 30.8165 28.1385 31.0917C28.0618 31.2461 27.9749 31.4053 27.8827 31.5626ZM28.0521 40.5092L28.0189 41.0081C26.8883 40.9328 25.8116 41.1644 24.8299 41.694L24.5925 41.254C24.0843 41.5281 23.6029 41.8743 23.1526 42.2894L23.1526 42.2894C22.6397 42.7622 22.2118 43.3175 21.8742 43.9253L22.3113 44.1681C21.6984 45.2713 21.3992 46.5722 21.4602 47.8742L20.9608 47.8976C20.9927 48.5786 21.1167 49.2612 21.3395 49.9207C21.6108 50.7243 21.9824 51.4561 22.4382 52.1024L22.8468 51.8142C23.7678 53.12 25.0468 54.0402 26.5178 54.4577L26.3813 54.9387C27.1582 55.1592 27.9829 55.2488 28.833 55.1943C29.4405 55.1553 30.0165 55.052 30.558 54.883L30.4091 54.4057C31.4721 54.0741 32.3725 53.475 33.0984 52.6161L33.4803 52.9388C33.8446 52.5077 34.165 52.0197 34.4417 51.4779C34.6351 51.099 34.7857 50.6526 34.8963 50.18L34.4094 50.0661C34.5901 49.2934 34.6666 48.4026 34.6228 47.5678L35.1222 47.5416C35.0979 47.0785 35.0382 46.6244 34.9381 46.207C34.7889 45.5851 34.5308 44.9767 34.1927 44.4055L33.7625 44.6602C33.1634 43.6481 32.2813 42.7376 31.2683 42.0872C30.7525 41.7561 30.2028 41.4923 29.6392 41.3169L29.7878 40.8395C29.7878 40.8395 29.7878 40.8395 29.7878 40.8395C29.2038 40.6577 28.6236 40.5472 28.0521 40.5092ZM27.1573 51.8804C27.7094 51.9629 28.3675 51.9629 28.9196 51.8804L28.8457 51.3859C29.1587 51.3391 29.3922 51.2689 29.5293 51.1956C29.8511 51.0235 30.1325 50.8287 30.3745 50.6144L30.7059 50.9887C31.298 50.4644 31.7004 49.8199 31.9009 49.0747L31.4181 48.9448C31.5018 48.6338 31.5465 48.2985 31.5488 47.9394C31.5508 47.6212 31.5171 47.3179 31.4508 47.0328L31.9379 46.9197C31.7775 46.2296 31.4471 45.6188 30.969 45.1282L30.611 45.4772C30.4075 45.2684 30.1719 45.0836 29.9055 44.9275L30.1583 44.4961L29.9055 44.9274C29.7134 44.8149 29.4856 44.7147 29.2359 44.6323L29.3926 44.1575C28.8604 43.9817 28.2693 43.8884 27.743 43.8959L27.7501 44.3958C27.4783 44.3997 27.246 44.4338 27.0677 44.4907C26.6858 44.6125 26.3397 44.7852 26.0349 44.9988L25.748 44.5894C25.0219 45.0981 24.4919 45.8175 24.2254 46.6558L24.7019 46.8073C24.5892 47.1616 24.5297 47.5422 24.5312 47.9407C24.5325 48.2997 24.5765 48.6349 24.6596 48.9457L24.1766 49.075C24.3759 49.8199 24.7781 50.4644 25.3709 50.989L25.7022 50.6145C25.9441 50.8286 26.2256 51.0233 26.5476 51.1956C26.6847 51.2689 26.9182 51.3391 27.2312 51.3859L27.1573 51.8804ZM49.1735 54.8343L49.1735 54.8343C49.406 54.922 49.6216 54.9945 49.8354 55.0517L49.9646 54.5686C50.3662 54.676 50.7416 54.7183 51.2458 54.7152L51.2488 55.2152C51.4535 55.214 51.675 55.2057 51.9206 55.192C52.4159 55.1644 52.8788 55.1036 53.3183 55.0021L53.2058 54.5149C54.0809 54.3127 54.8309 53.942 55.5625 53.3508L55.8768 53.7396C56.2203 53.462 56.5556 53.1425 56.8921 52.7791C57.2263 52.418 57.5179 52.058 57.7681 51.6896L57.3545 51.4087C57.8713 50.6478 58.1861 49.8688 58.3382 48.9737L58.8312 49.0574C58.9062 48.6157 58.9434 48.1529 58.9486 47.6607C58.9556 46.9893 58.893 46.3496 58.7612 45.7473L58.2728 45.8542C57.9993 44.6046 57.4114 43.5498 56.5354 42.7356L56.8758 42.3694C56.4088 41.9354 55.8694 41.567 55.2635 41.2687C54.7306 41.0064 54.1875 40.8149 53.6424 40.691L53.5315 41.1785C52.4479 40.9321 51.3635 40.9744 50.3517 41.265L50.2137 40.7844C49.116 41.0998 48.1014 41.6852 47.2494 42.4929L47.5933 42.8557C46.8467 43.5634 46.231 44.4562 45.8082 45.5L45.3448 45.3123C45.1374 45.8244 44.9743 46.3693 44.8614 46.9433C44.701 47.7583 44.6932 48.5788 44.8181 49.3696L45.3119 49.2916C45.5497 50.7975 46.3059 52.192 47.4277 53.1955L47.0944 53.5681C47.6952 54.1055 48.3949 54.5404 49.1735 54.8343ZM53.8385 44.421C53.1691 44.0869 52.3476 43.8996 51.5871 43.9085L50.4444 44.1014L50.6183 44.5702C50.6182 44.5702 50.6182 44.5702 50.6182 44.5702C50.372 44.6616 50.1234 44.7967 49.8839 44.9683L49.5926 44.5619C49.074 44.9336 48.6168 45.439 48.2992 45.9918L48.7327 46.2409C48.5859 46.4965 48.4765 46.7572 48.4107 47.0111C48.3293 47.3247 48.2845 47.6179 48.2737 47.8947L47.7741 47.8753C47.7474 48.5617 47.9024 49.1927 48.2461 49.7976L48.6808 49.5505C48.8181 49.792 48.9926 50.0341 49.2082 50.279L48.8329 50.6094L49.2082 50.279C49.615 50.7411 50.0929 51.0644 50.5976 51.2599L50.417 51.7262C51.658 52.2067 53.0604 52.021 54.1363 51.2332L53.8409 50.8298C54.2779 50.5098 54.6565 50.0736 54.9312 49.5223L54.9312 49.5222C54.9932 49.398 55.051 49.2672 55.1032 49.134L55.5687 49.3168C55.6889 49.0106 55.7808 48.6974 55.8329 48.4184L55.3414 48.3266C55.3695 48.1762 55.3816 48.0508 55.3811 47.9556C55.3802 47.7894 55.3481 47.5671 55.2834 47.3085L55.7685 47.1872C55.6484 46.7071 55.4435 46.1792 55.208 45.7438L54.7682 45.9817C54.6414 45.7473 54.5151 45.5615 54.4035 45.4382L54.4035 45.4381C54.2139 45.2284 53.9449 45.0329 53.6152 44.8684L53.8385 44.421Z" fill="url(#paint1_linear_194_96)" fill-opacity="0.3" stroke="#9EA74E" stroke-dasharray="4 4"/>
<defs>
<linearGradient id="paint0_linear_194_96" x1="40" y1="0" x2="40" y2="80" gradientUnits="userSpaceOnUse">
<stop stop-color="#D8E574"/>
<stop offset="0.0001" stop-color="#D3E165"/>
<stop offset="0.79745" stop-color="#B6BF56"/>
<stop offset="1" stop-color="#989C46"/>
</linearGradient>
<linearGradient id="paint1_linear_194_96" x1="39.1391" y1="5.19669" x2="39.1391" y2="72.0509" gradientUnits="userSpaceOnUse">
<stop stop-color="#3A2F19"/>
<stop offset="1" stop-color="#1E0F09"/>
</linearGradient>
</defs>
</svg>
